<?xml version="1.0" encoding="UTF-8"?><svg xmlns="http://www.w3.org/2000/svg" xmlns:xlink="http://www.w3.org/1999/xlink" fill-opacity="1" color-rendering="auto" color-interpolation="auto" text-rendering="auto" stroke="black" stroke-linecap="square" width="180" stroke-miterlimit="10" shape-rendering="auto" stroke-opacity="1" fill="black" stroke-dasharray="none" font-weight="normal" stroke-width="1" height="280" font-family="'Dialog'" font-style="normal" stroke-linejoin="miter" font-size="12px" stroke-dashoffset="0" image-rendering="auto">
  <!--Generated by ySVG 2.5-->
  <defs id="genericDefs"/>
  <g>
    <defs id="defs1">
      <clipPath clipPathUnits="userSpaceOnUse" id="clipPath1">
        <path d="M0 0 L180 0 L180 280 L0 280 L0 0 Z"/>
      </clipPath>
      <clipPath clipPathUnits="userSpaceOnUse" id="clipPath2">
        <path d="M20 -10 L200 -10 L200 270 L20 270 L20 -10 Z"/>
      </clipPath>
    </defs>
    <g fill="rgb(238,238,238)" text-rendering="geometricPrecision" shape-rendering="geometricPrecision" transform="matrix(1,0,0,1,-20,10)" stroke="rgb(238,238,238)">
      <rect x="35" width="150" height="50" y="5" clip-path="url(#clipPath2)" stroke="none"/>
    </g>
    <g stroke-linecap="butt" transform="matrix(1,0,0,1,-20,10)" fill="rgb(170,170,170)" text-rendering="geometricPrecision" shape-rendering="geometricPrecision" stroke="rgb(170,170,170)" stroke-miterlimit="1.45">
      <rect fill="none" x="35" width="150" height="50" y="5" clip-path="url(#clipPath2)"/>
      <text x="74.6094" xml:space="preserve" y="34.5352" clip-path="url(#clipPath2)" font-family="sans-serif" stroke="none">API Gateway</text>
    </g>
    <g fill="rgb(238,238,238)" text-rendering="geometricPrecision" shape-rendering="geometricPrecision" transform="matrix(1,0,0,1,-20,10)" stroke="rgb(238,238,238)">
      <rect x="35" width="150" height="50" y="205" clip-path="url(#clipPath2)" stroke="none"/>
    </g>
    <g stroke-linecap="butt" transform="matrix(1,0,0,1,-20,10)" fill="rgb(170,170,170)" text-rendering="geometricPrecision" shape-rendering="geometricPrecision" stroke="rgb(170,170,170)" stroke-miterlimit="1.45">
      <rect fill="none" x="35" width="150" height="50" y="205" clip-path="url(#clipPath2)"/>
      <text x="80.7881" xml:space="preserve" y="234.5352" clip-path="url(#clipPath2)" font-family="sans-serif" stroke="none">Controller</text>
    </g>
    <g fill="rgb(153,204,255)" text-rendering="geometricPrecision" shape-rendering="geometricPrecision" transform="matrix(1,0,0,1,-20,10)" stroke="rgb(153,204,255)">
      <rect x="35" width="150" height="50" y="105" clip-path="url(#clipPath2)" stroke="none"/>
    </g>
    <g text-rendering="geometricPrecision" stroke-miterlimit="1.45" shape-rendering="geometricPrecision" transform="matrix(1,0,0,1,-20,10)" stroke-linecap="butt">
      <rect fill="none" x="35" width="150" height="50" y="105" clip-path="url(#clipPath2)"/>
      <text x="78.7842" xml:space="preserve" y="134.5352" clip-path="url(#clipPath2)" font-family="sans-serif" stroke="none">Dispatcher</text>
      <path fill="none" d="M109.5 55 L110.3391 96.9528" clip-path="url(#clipPath2)"/>
      <path d="M110.499 104.9512 L115.2581 92.8536 L110.3191 95.953 L105.2601 93.0536 Z" clip-path="url(#clipPath2)" stroke="none"/>
      <rect x="71.0674" y="78.8711" clip-path="url(#clipPath2)" fill="white" width="78.8652" height="18.1328" stroke="none"/>
      <rect stroke-linecap="square" x="71.0674" y="78.8711" clip-path="url(#clipPath2)" fill="none" width="78.8652" height="18.1328" stroke-miterlimit="1.6"/>
      <text x="73.0674" xml:space="preserve" y="92.4727" clip-path="url(#clipPath2)" font-family="sans-serif" stroke="none">Web Request</text>
      <path fill="none" d="M109.5 155 L110.3391 196.9528" clip-path="url(#clipPath2)"/>
      <path d="M110.499 204.9512 L115.2581 192.8536 L110.3191 195.953 L105.2601 193.0535 Z" clip-path="url(#clipPath2)" stroke="none"/>
      <rect x="65.7119" y="178.8711" clip-path="url(#clipPath2)" fill="white" width="89.5762" height="18.1328" stroke="none"/>
      <rect stroke-linecap="square" x="65.7119" y="178.8711" clip-path="url(#clipPath2)" fill="none" width="89.5762" height="18.1328" stroke-miterlimit="1.6"/>
      <text x="67.7119" xml:space="preserve" y="192.4727" clip-path="url(#clipPath2)" font-family="sans-serif" stroke="none">URL + Context</text>
    </g>
  </g>
</svg>
