<?xml version="1.0" encoding="UTF-8"?><svg xmlns="http://www.w3.org/2000/svg" xmlns:xlink="http://www.w3.org/1999/xlink" fill-opacity="1" color-rendering="auto" color-interpolation="auto" text-rendering="auto" stroke="black" stroke-linecap="square" width="180" stroke-miterlimit="10" shape-rendering="auto" stroke-opacity="1" fill="black" stroke-dasharray="none" font-weight="normal" stroke-width="1" height="280" font-family="'Dialog'" font-style="normal" stroke-linejoin="miter" font-size="12px" stroke-dashoffset="0" image-rendering="auto">
  <!--Generated by ySVG 2.5-->
  <defs id="genericDefs"/>
  <g>
    <defs id="defs1">
      <clipPath clipPathUnits="userSpaceOnUse" id="clipPath1">
        <path d="M0 0 L180 0 L180 280 L0 280 L0 0 Z"/>
      </clipPath>
      <clipPath clipPathUnits="userSpaceOnUse" id="clipPath2">
        <path d="M20 -10 L200 -10 L200 270 L20 270 L20 -10 Z"/>
      </clipPath>
    </defs>
    <g fill="rgb(204,255,204)" text-rendering="geometricPrecision" shape-rendering="geometricPrecision" transform="matrix(1,0,0,1,-20,10)" stroke="rgb(204,255,204)">
      <rect x="35" width="150" height="50" y="105" clip-path="url(#clipPath2)" stroke="none"/>
    </g>
    <g text-rendering="geometricPrecision" stroke-miterlimit="1.45" shape-rendering="geometricPrecision" transform="matrix(1,0,0,1,-20,10)" stroke-linecap="butt">
      <rect fill="none" x="35" width="150" height="50" y="105" clip-path="url(#clipPath2)"/>
      <text x="76.4902" xml:space="preserve" y="134.5352" clip-path="url(#clipPath2)" font-family="sans-serif" stroke="none">Service Tier</text>
    </g>
    <g fill="rgb(238,238,238)" text-rendering="geometricPrecision" shape-rendering="geometricPrecision" transform="matrix(1,0,0,1,-20,10)" stroke="rgb(238,238,238)">
      <rect x="35" width="150" height="50" y="205" clip-path="url(#clipPath2)" stroke="none"/>
    </g>
    <g stroke-linecap="butt" transform="matrix(1,0,0,1,-20,10)" fill="rgb(170,170,170)" text-rendering="geometricPrecision" shape-rendering="geometricPrecision" stroke="rgb(170,170,170)" stroke-miterlimit="1.45">
      <rect fill="none" x="35" width="150" height="50" y="205" clip-path="url(#clipPath2)"/>
      <text x="83.4102" xml:space="preserve" y="234.5352" clip-path="url(#clipPath2)" font-family="sans-serif" stroke="none">Data Tier</text>
    </g>
    <g fill="rgb(238,238,238)" text-rendering="geometricPrecision" shape-rendering="geometricPrecision" transform="matrix(1,0,0,1,-20,10)" stroke="rgb(238,238,238)">
      <rect x="35" width="150" height="50" y="5" clip-path="url(#clipPath2)" stroke="none"/>
    </g>
    <g stroke-linecap="butt" transform="matrix(1,0,0,1,-20,10)" fill="rgb(170,170,170)" text-rendering="geometricPrecision" shape-rendering="geometricPrecision" stroke="rgb(170,170,170)" stroke-miterlimit="1.45">
      <rect fill="none" x="35" width="150" height="50" y="5" clip-path="url(#clipPath2)"/>
      <text x="80.7881" xml:space="preserve" y="34.5352" clip-path="url(#clipPath2)" font-family="sans-serif" stroke="none">Controller</text>
      <path fill="none" d="M109.5 155 L110.3391 196.9528" clip-path="url(#clipPath2)" stroke="black"/>
      <path fill="black" d="M110.499 204.9512 L115.2581 192.8536 L110.3191 195.953 L105.2601 193.0535 Z" clip-path="url(#clipPath2)" stroke="none"/>
      <rect x="99.9365" y="178.8711" clip-path="url(#clipPath2)" fill="white" width="21.127" height="18.1328" stroke="none"/>
    </g>
    <g text-rendering="geometricPrecision" stroke-miterlimit="1.6" shape-rendering="geometricPrecision" transform="matrix(1,0,0,1,-20,10)">
      <rect fill="none" x="99.9365" width="21.127" height="18.1328" y="178.8711" clip-path="url(#clipPath2)"/>
      <text stroke-linecap="butt" x="101.9365" y="192.4727" clip-path="url(#clipPath2)" font-family="sans-serif" stroke="none" stroke-miterlimit="1.45" xml:space="preserve">Ids</text>
      <path fill="none" stroke-miterlimit="1.45" d="M109.5 55 L110.3391 96.9528" clip-path="url(#clipPath2)" stroke-linecap="butt"/>
      <path stroke-miterlimit="1.45" d="M110.499 104.9512 L115.2581 92.8536 L110.3191 95.953 L105.2601 93.0536 Z" clip-path="url(#clipPath2)" stroke-linecap="butt" stroke="none"/>
    </g>
    <g stroke-linecap="butt" transform="matrix(1,0,0,1,-20,10)" fill="white" text-rendering="geometricPrecision" shape-rendering="geometricPrecision" stroke="white" stroke-miterlimit="1.45">
      <rect x="47.3105" width="126.3789" height="18.1328" y="78.8711" clip-path="url(#clipPath2)" stroke="none"/>
    </g>
    <g text-rendering="geometricPrecision" stroke-miterlimit="1.6" shape-rendering="geometricPrecision" transform="matrix(1,0,0,1,-20,10)">
      <rect fill="none" x="47.3105" width="126.3789" height="18.1328" y="78.8711" clip-path="url(#clipPath2)"/>
      <text stroke-linecap="butt" x="49.3105" y="92.4727" clip-path="url(#clipPath2)" font-family="sans-serif" stroke="none" stroke-miterlimit="1.45" xml:space="preserve">Strings and Numbers</text>
    </g>
  </g>
</svg>
