<?xml version="1.0" encoding="UTF-8"?><svg xmlns="http://www.w3.org/2000/svg" xmlns:xlink="http://www.w3.org/1999/xlink" fill-opacity="1" color-rendering="auto" color-interpolation="auto" text-rendering="auto" stroke="black" stroke-linecap="square" width="288" stroke-miterlimit="10" shape-rendering="auto" stroke-opacity="1" fill="black" stroke-dasharray="none" font-weight="normal" stroke-width="1" height="590" font-family="'Dialog'" font-style="normal" stroke-linejoin="miter" font-size="12px" stroke-dashoffset="0" image-rendering="auto">
  <!--Generated by ySVG 2.5-->
  <defs id="genericDefs"/>
  <g>
    <defs id="defs1">
      <clipPath clipPathUnits="userSpaceOnUse" id="clipPath1">
        <path d="M0 0 L288 0 L288 590 L0 590 L0 0 Z"/>
      </clipPath>
      <clipPath clipPathUnits="userSpaceOnUse" id="clipPath2">
        <path d="M16 -10 L304 -10 L304 580 L16 580 L16 -10 Z"/>
      </clipPath>
      <clipPath clipPathUnits="userSpaceOnUse" id="clipPath3">
        <path d="M-94 -130 L194 -130 L194 460 L-94 460 L-94 -130 Z"/>
      </clipPath>
      <clipPath clipPathUnits="userSpaceOnUse" id="clipPath4">
        <path d="M-15.7229 -16.619 L272.277 -16.619 L272.277 573.381 L-15.7229 573.381 L-15.7229 -16.619 Z"/>
      </clipPath>
      <clipPath clipPathUnits="userSpaceOnUse" id="clipPath5">
        <path d="M-115.7229 -18.2125 L172.2771 -18.2125 L172.2771 571.7875 L-115.7229 571.7875 L-115.7229 -18.2125 Z"/>
      </clipPath>
      <clipPath clipPathUnits="userSpaceOnUse" id="clipPath6">
        <path d="M-215.7229 -14.7221 L72.2771 -14.7221 L72.2771 575.2779 L-215.7229 575.2779 L-215.7229 -14.7221 Z"/>
      </clipPath>
      <clipPath clipPathUnits="userSpaceOnUse" id="clipPath7">
        <path d="M-94 -370 L194 -370 L194 220 L-94 220 L-94 -370 Z"/>
      </clipPath>
      <clipPath clipPathUnits="userSpaceOnUse" id="clipPath8">
        <path d="M-94 -250 L194 -250 L194 340 L-94 340 L-94 -250 Z"/>
      </clipPath>
    </defs>
    <g text-rendering="geometricPrecision" shape-rendering="geometricPrecision" transform="matrix(1,0,0,1,94,130)">
      <g clip-path="url(#clipPath3)">
        <svg xml:space="preserve" opacity="1" writing-mode="lr-tb" stop-color="rgb(0, 0, 0)" shape-rendering="auto" glyph-orientation-horizontal="0deg" color-profile="auto" lighting-color="rgb(255, 255, 255)" color="rgb(0, 0, 0)" font-weight="400" alignment-baseline="auto" font-style="normal" version="1.1" color-interpolation-filters="linearrgb" text-anchor="start" stroke-linecap="butt" color-interpolation="srgb" font-variant="normal" word-spacing="normal" fill-opacity="1" text-rendering="auto" clip-path="none" text-decoration="none" letter-spacing="normal" viewBox="0 0 100 100" glyph-orientation-vertical="auto" display="inline" font-size-adjust="none" overflow="visible" fill="rgb(0, 0, 0)" font-stretch="normal" stroke-dasharray="none" stroke-miterlimit="4" stop-opacity="1" color-rendering="auto" font-size="12" pointer-events="visiblepainted" mask="none" direction="ltr" baseline-shift="baseline" enable-background="new 0 0 100 100" fill-rule="nonzero" image-rendering="auto" stroke-dashoffset="0" style="enable-background:new 0 0 100 100;" width="100px" marker-end="none" clip="auto" cursor="auto" stroke="none" filter="none" visibility="visible" kerning="auto" stroke-width="1" font-family="&quot;Arial&quot;,&quot;Helvetica&quot;,sans-serif" flood-opacity="1" clip-rule="nonzero" src="none" height="100px" unicode-bidi="normal" stroke-linejoin="miter" stroke-opacity="1" flood-color="rgb(0, 0, 0)" dominant-baseline="auto" marker-start="none" x="0px" marker-mid="none" y="0px">
<style type="text/css">
	.st0{fill:#876929;}
	.st1{fill:#624A1E;}
	.st2{fill:#FAD791;}
	.st3{fill:#D9A741;}
	.st4{enable-background:new    ;}
	.st5{fill:#FFFFFF;}
	.st6{clip-path:url(#SVGID_2_);enable-background:new    ;}
	.st7{clip-path:url(#SVGID_4_);enable-background:new    ;}
	.st8{clip-path:url(#SVGID_6_);enable-background:new    ;}
</style>
<g id="svg1.Layer_1">
	<polygon class="st2" points="84.1,55.2 67.5,54.5 56.8,55.2 74.5,79.2  "/>
	<polygon class="st1" points="84.1,45.2 67.5,45.9 56.8,45.2 74.5,21.1  "/>
	<polygon class="st1" points="15.9,45.1 32.5,45.9 43.2,45.2 25.5,21.2  "/>
	<polygon class="st2" points="15.9,55.2 32.5,54.5 43.2,55.2 25.5,79.2  "/>
	<polygon class="st3" points="74.5,44.2 84.1,45.2 84.1,25.9 74.5,21.1  "/>
	<polygon class="st0" points="56.8,25.9 74.5,21.1 74.5,44.2 56.8,45.2  "/>
	<polygon class="st3" points="50,23.1 69.2,29.4 69.2,38.9 50,35.5  "/>
	<polygon class="st1" points="41.4,37.1 50.1,35.5 69.2,38.9 60.7,39.8  "/>
	<polygon class="st0" points="25.5,44.2 15.9,45.1 15.9,25.8 25.5,21.1  "/>
	<polygon class="st3" points="43.2,25.9 25.5,21.1 25.5,44.2 43.2,45.2  "/>
	<polygon class="st0" points="50,23.1 30.8,29.4 30.8,38.9 50,35.5  "/>
	<polygon class="st1" points="58.6,37.1 49.9,35.5 30.8,38.9 39.3,39.8  "/>
	<polygon class="st3" points="74.5,56.1 84.1,55.2 84.1,74.4 74.5,79.2  "/>
	<polygon class="st0" points="56.8,74.5 74.5,79.2 74.5,56.1 56.8,55.2  "/>
	<polygon class="st3" points="50,77.2 69.2,71 69.2,61.4 50,64.8  "/>
	<polygon class="st2" points="41.4,63.3 50.1,64.8 69.2,61.4 60.7,60.5  "/>
	<polygon class="st0" points="25.5,56.1 15.9,55.2 15.9,74.4 25.5,79.2  "/>
	<polygon class="st3" points="43.2,74.5 25.5,79.2 25.5,56.1 43.2,55.2  "/>
	<polygon class="st0" points="50,77.2 30.8,71 30.8,61.4 50,64.8  "/>
	<polygon class="st2" points="58.6,63.3 49.9,64.8 30.8,61.4 39.3,60.5  "/>
	<polygon class="st0" points="39.8,86.1 50,91.2 55.7,88.3 60.2,13.9 50,8.8 39.8,13.9  "/>
	<polygon class="st3" points="60.2,86.1 50,91.2 50,8.8 60.2,13.9  "/>
</g>
<g id="svg1.Layer_2">
</g>
</svg>
      </g>
    </g>
    <g fill="white" text-rendering="geometricPrecision" shape-rendering="geometricPrecision" transform="matrix(1,0,0,1,-16,10)" stroke="white">
      <rect x="122.6094" width="74.7812" height="18.1328" y="215.2" clip-path="url(#clipPath2)" stroke="none"/>
    </g>
    <g text-rendering="geometricPrecision" stroke-miterlimit="1.6" shape-rendering="geometricPrecision" transform="matrix(1,0,0,1,-16,10)">
      <rect fill="none" x="122.6094" width="74.7812" height="18.1328" y="215.2" clip-path="url(#clipPath2)"/>
      <text stroke-linecap="butt" x="124.6094" y="228.8016" clip-path="url(#clipPath2)" font-family="sans-serif" stroke="none" stroke-miterlimit="1.45" xml:space="preserve">API Gateway</text>
    </g>
    <g text-rendering="geometricPrecision" shape-rendering="geometricPrecision" transform="matrix(1,0,0,1,15.7229,16.619)">
      <g clip-path="url(#clipPath4)">
        <svg xml:space="preserve" opacity="1" writing-mode="lr-tb" stop-color="rgb(0, 0, 0)" shape-rendering="auto" glyph-orientation-horizontal="0deg" color-profile="auto" lighting-color="rgb(255, 255, 255)" color="rgb(0, 0, 0)" font-weight="400" alignment-baseline="auto" font-style="normal" version="1.1" color-interpolation-filters="linearrgb" text-anchor="start" stroke-linecap="butt" color-interpolation="srgb" font-variant="normal" word-spacing="normal" fill-opacity="1" text-rendering="auto" clip-path="none" text-decoration="none" letter-spacing="normal" viewBox="0 0 57 67" glyph-orientation-vertical="auto" display="inline" font-size-adjust="none" overflow="visible" fill="rgb(0, 0, 0)" font-stretch="normal" stroke-dasharray="none" id="svg2.Ebene_1" stroke-miterlimit="4" stop-opacity="1" color-rendering="auto" font-size="12" pointer-events="visiblepainted" mask="none" direction="ltr" baseline-shift="baseline" enable-background="new 0 0 57 67" fill-rule="nonzero" image-rendering="auto" stroke-dashoffset="0" width="57px" marker-end="none" clip="auto" cursor="auto" stroke="none" filter="none" visibility="visible" kerning="auto" stroke-width="1" font-family="&quot;Arial&quot;,&quot;Helvetica&quot;,sans-serif" flood-opacity="1" clip-rule="nonzero" src="none" height="67px" unicode-bidi="normal" stroke-linejoin="miter" stroke-opacity="1" flood-color="rgb(0, 0, 0)" dominant-baseline="auto" marker-start="none" x="0px" marker-mid="none" y="0px">
<g>
	
		<radialGradient gradientTransform="matrix(1 0 0 -1 0.1201 -706.5371)" gradientUnits="userSpaceOnUse" r="11.4464" cx="28.0298" id="svg2.neck_x5F_white_1_" cy="-751.9429" fx="25.7969" fy="-753.1596">
		<stop offset="0" style="stop-color:#B38E5D"/>
		<stop offset="1" style="stop-color:#805126"/>
	</radialGradient>
	<path fill="url(#svg2.neck_x5F_white_1_)" id="svg2.neck_x5F_white_2_" d="M19.278,37.799h18.188   v13.23c-1.313,0.371-17.173,0.436-18.188,0.172V37.799z" stroke-miterlimit="10" stroke="#5B453B"/>
	
		<radialGradient gradientTransform="matrix(1 0 0 -1 0.1201 -706.5371)" gradientUnits="userSpaceOnUse" r="31.0533" cx="27.481" id="svg2.SVGID_1_" cy="-760.3003" fx="21.4231" fy="-763.6011">
		<stop offset="0" style="stop-color:#B38E5D"/>
		<stop offset="1" style="stop-color:#805126"/>
	</radialGradient>
	<path fill="url(#svg2.SVGID_1_)" d="M49.529,51.225c-4.396-4.396-10.951-5.884-12.063-6.109   V37.8H19.278c0,0,0.038,6.903,0,6.868c0,0-6.874,0.997-12.308,6.432C1.378,56.691,0.5,62.77,0.5,62.77   c0,1.938,1.575,3.492,3.523,3.492h48.51c1.947,0,3.521-1.558,3.521-3.492C56.055,62.768,54.211,55.906,49.529,51.225z" stroke-miterlimit="10" stroke="#5B453B"/>
	
		<radialGradient gradientTransform="matrix(1 0 0 -1 0.1201 -706.5371)" gradientUnits="userSpaceOnUse" r="23.424" cx="27.7827" id="svg2.face_x5F_white_1_" cy="-732.2632" fx="23.2131" fy="-734.753">
		<stop offset="0" style="stop-color:#B38E5D"/>
		<stop offset="1" style="stop-color:#805126"/>
	</radialGradient>
	<path fill="url(#svg2.face_x5F_white_1_)" id="svg2.face_x5F_white_2_" d="M43.676,23.357   c0.086,10.199-6.738,18.52-15.246,18.586c-8.503,0.068-15.467-8.146-15.553-18.344C12.794,13.4,19.618,5.079,28.123,5.012   C36.627,4.945,43.59,13.158,43.676,23.357z" stroke-miterlimit="10" stroke="#5B453B"/>
	
		<linearGradient gradientTransform="matrix(0.275 0 0 0.2733 -783.3976 -1542.678)" x1="2941.4297" x2="2965.0596" gradientUnits="userSpaceOnUse" y1="5674.7988" y2="5768.2505" id="svg2.face_highlight_1_">
		<stop offset="0" style="stop-color:#FFFFFF;stop-opacity:0.42"/>
		<stop offset="1" style="stop-color:#FFFFFF;stop-opacity:0.12"/>
	</linearGradient>
	<path fill="url(#svg2.face_highlight_1_)" id="svg2.face_highlight_2_" d="M27.958,6.333c-6.035,0.047-10.747,4.493-12.787,10.386   c-0.664,1.919-0.294,4.043,0.98,5.629c2.73,3.398,5.729,6.283,9.461,8.088c3.137,1.518,7.535,2.385,11.893,1.247   c2.274-0.592,3.988-2.459,4.375-4.766c0.183-1.094,0.293-2.289,0.283-3.553C42.083,13.952,36.271,6.268,27.958,6.333z"/>
	<path fill="#4B4B4B" d="M28.372,0.5   C17.537,0.5,8.269,7.748,9.153,26.125c0.563,6.563,5.862,12.042,9.366,13.531c-2.929-10.968-0.304-25.021-0.585-25.526   c-0.281-0.505,3.536,6.728,3.536,6.728l3.183-8.312c5.541,4.28,0.393,11.309,1.049,11.058c4.26-1.631,5.34-9.228,5.34-9.228   s2.729,3.657,2.701,5.504c-0.054,3.562,2.194-6.067,2.194-6.067l1.027,2.031c6.727,9.822,3.684,16.208,1.654,22.781   c15.665-0.703,12.289-10.48,9.658-18.407C43.59,6.092,39.206,0.5,28.372,0.5z" id="svg2.path9833_2_" stroke="#000000" stroke-linecap="round" stroke-linejoin="round"/>
	
		<radialGradient gradientTransform="matrix(1 0 0 -1 0.1201 -706.5371)" id="svg2.collar_x5F_body_2_" r="32.4004" cx="15.1587" gradientUnits="userSpaceOnUse" cy="-763.7056">
		<stop offset="0" style="stop-color:#B0E8FF"/>
		<stop offset="1" style="stop-color:#74AEEE"/>
	</radialGradient>
	<path fill="url(#svg2.collar_x5F_body_2_)" d="M0.5,62.768c0,1.938,1.575,3.494,3.523,3.494   h48.51c1.947,0,3.521-1.559,3.521-3.494c0,0-1.844-6.861-6.525-11.543c-4.815-4.813-11.244-6.146-11.244-6.146   c-1.771,1.655-5.61,2.802-10.063,2.802c-4.453,0-8.292-1.146-10.063-2.802c0,0-5.755,0.586-11.189,6.021   C1.378,56.689,0.5,62.768,0.5,62.768z" id="svg2.collar_x5F_body_1_" stroke="#5491CF"/>
	
		<radialGradient gradientTransform="matrix(1 0 0 -1 0.1201 -706.5371)" id="svg2.collar_x5F_r_2_" r="9.2834" cx="31.5" gradientUnits="userSpaceOnUse" cy="-753.832">
		<stop offset="0" style="stop-color:#80CCFF"/>
		<stop offset="1" style="stop-color:#74AEEE"/>
	</radialGradient>
	<path fill="url(#svg2.collar_x5F_r_2_)" d="M38.159,41.381c0,0-0.574,2.369-3.013,4.441   c-2.108,1.795-5.783,2.072-5.783,2.072l3.974,6.217c0,0,2.957-1.637,5.009-3.848c1.922-2.072,1.37-5.479,1.37-5.479L38.159,41.381z   " id="svg2.collar_x5F_r_1_" stroke="#5491CF"/>
	
		<radialGradient gradientTransform="matrix(1 0 0 -1 0.1201 -706.5371)" id="svg2.collar_x5F_l_2_" r="9.2837" cx="19.1377" gradientUnits="userSpaceOnUse" cy="-753.873">
		<stop offset="0" style="stop-color:#80CCFF"/>
		<stop offset="1" style="stop-color:#74AEEE"/>
	</radialGradient>
	<path fill="url(#svg2.collar_x5F_l_2_)" d="M18.63,41.422c0,0,0.576,2.369,3.012,4.441   c2.109,1.793,5.785,2.072,5.785,2.072l-3.974,6.217c0,0-2.957-1.637-5.007-3.85c-1.922-2.072-1.37-5.48-1.37-5.48L18.63,41.422z" id="svg2.collar_x5F_l_1_" stroke="#5491CF"/>
	
		<radialGradient gradientTransform="matrix(1 0 0 -1 0.04 66.1543)" id="svg2.Knob2_2_" r="0.9669" cx="27.8872" gradientUnits="userSpaceOnUse" cy="9.9414">
		<stop offset="0" style="stop-color:#80CCFF"/>
		<stop offset="1" style="stop-color:#74AEEE"/>
	</radialGradient>
	<circle fill="url(#svg2.Knob2_2_)" r="0.584" id="svg2.Knob2_1_" cx="28.258" cy="56.254" stroke="#5491CF"/>
	
		<radialGradient gradientTransform="matrix(1 0 0 -1 0.04 66.1543)" id="svg2.Knob1_2_" r="0.9669" cx="27.9253" gradientUnits="userSpaceOnUse" cy="3.6973">
		<stop offset="0" style="stop-color:#80CCFF"/>
		<stop offset="1" style="stop-color:#74AEEE"/>
	</radialGradient>
	<circle fill="url(#svg2.Knob1_2_)" r="0.584" id="svg2.Knob1_1_" cx="28.296" cy="62.499" stroke="#5491CF"/>
</g>
</svg>
      </g>
    </g>
    <g text-rendering="geometricPrecision" shape-rendering="geometricPrecision" transform="matrix(1,0,0,1,115.7229,18.2125)">
      <g clip-path="url(#clipPath5)">
        <svg xml:space="preserve" opacity="1" writing-mode="lr-tb" stop-color="rgb(0, 0, 0)" shape-rendering="auto" glyph-orientation-horizontal="0deg" color-profile="auto" lighting-color="rgb(255, 255, 255)" color="rgb(0, 0, 0)" font-weight="400" alignment-baseline="auto" font-style="normal" version="1.1" color-interpolation-filters="linearrgb" text-anchor="start" stroke-linecap="butt" color-interpolation="srgb" font-variant="normal" word-spacing="normal" fill-opacity="1" text-rendering="auto" clip-path="none" text-decoration="none" letter-spacing="normal" viewBox="0 0 57 65" glyph-orientation-vertical="auto" display="inline" font-size-adjust="none" overflow="visible" fill="rgb(0, 0, 0)" font-stretch="normal" stroke-dasharray="none" id="svg3.Ebene_1" stroke-miterlimit="4" stop-opacity="1" color-rendering="auto" font-size="12" pointer-events="visiblepainted" mask="none" direction="ltr" baseline-shift="baseline" enable-background="new 0 0 57 65" fill-rule="nonzero" image-rendering="auto" stroke-dashoffset="0" width="57px" marker-end="none" clip="auto" cursor="auto" stroke="none" filter="none" visibility="visible" kerning="auto" stroke-width="1" font-family="&quot;Arial&quot;,&quot;Helvetica&quot;,sans-serif" flood-opacity="1" clip-rule="nonzero" src="none" height="65px" unicode-bidi="normal" stroke-linejoin="miter" stroke-opacity="1" flood-color="rgb(0, 0, 0)" dominant-baseline="auto" marker-start="none" x="0px" marker-mid="none" y="0px">
<g>
	
		<linearGradient gradientTransform="matrix(1 0 0 -1 0.1201 -708.5371)" x1="26.5396" x2="27.7805" gradientUnits="userSpaceOnUse" y1="-732.5005" y2="-762.2984" id="svg3.SVGID_1_">
		<stop offset="0.2711" style="stop-color:#FFAB4F"/>
		<stop offset="1" style="stop-color:#FFD28F"/>
	</linearGradient>
	<path fill="url(#svg3.SVGID_1_)" d="M49.529,51.225c-4.396-4.396-10.951-5.884-12.063-6.109   V37.8H19.278c0,0,0.038,6.903,0,6.868c0,0-6.874,0.997-12.308,6.432C1.378,56.691,0.5,62.77,0.5,62.77   c0,1.938,1.575,3.492,3.523,3.492h48.51c1.947,0,3.521-1.558,3.521-3.492C56.055,62.768,54.211,55.906,49.529,51.225z" stroke-miterlimit="10" stroke="#ED9135"/>
	
		<radialGradient gradientTransform="matrix(1 0 0 -1 0.1201 -708.5371)" gradientUnits="userSpaceOnUse" r="23.424" cx="27.7827" id="svg3.face_x5F_white_1_" cy="-734.2632" fx="23.2131" fy="-736.753">
		<stop offset="0" style="stop-color:#FFD28F"/>
		<stop offset="1" style="stop-color:#FFAB4F"/>
	</radialGradient>
	<path fill="url(#svg3.face_x5F_white_1_)" id="svg3.face_x5F_white_3_" d="M43.676,23.357   c0.086,10.2-6.738,18.52-15.246,18.586c-8.503,0.068-15.467-8.146-15.553-18.344C12.794,13.4,19.618,5.079,28.123,5.012   C36.627,4.945,43.59,13.158,43.676,23.357z" stroke-miterlimit="10" stroke="#ED9135"/>
	
		<linearGradient gradientTransform="matrix(0.275 0 0 0.2733 -783.3976 -1543.4047)" x1="2941.4297" x2="2965.0596" gradientUnits="userSpaceOnUse" y1="5677.457" y2="5770.9087" id="svg3.face_highlight_1_">
		<stop offset="0" style="stop-color:#FFFFFF;stop-opacity:0.42"/>
		<stop offset="1" style="stop-color:#FFFFFF;stop-opacity:0.2067"/>
	</linearGradient>
	<path fill="url(#svg3.face_highlight_1_)" id="svg3.face_highlight_3_" d="M27.958,6.333c-6.035,0.047-10.747,4.493-12.787,10.386   c-0.664,1.919-0.294,4.043,0.98,5.629c2.73,3.398,5.729,6.283,9.461,8.088c3.137,1.518,7.535,2.385,11.893,1.247   c2.274-0.592,3.988-2.459,4.375-4.766c0.183-1.094,0.293-2.289,0.283-3.553C42.083,13.952,36.271,6.268,27.958,6.333z"/>
	<path fill="#CC9869" d="M32.215,9.938   c0,0,5.688,2.75,7.688,8.125c2.104,5.652,4.123,8.232,4.188,8c1.875-6.794,1.063-21.438-10.17-21.587   c-20.455-7.663-25.58,11.962-23.893,19.65c1.078,4.911,2.234,6.686,3.938,8.08C13.966,32.205,15.028,17.563,32.215,9.938z" stroke="#99724F" stroke-linecap="round" stroke-linejoin="round"/>
	
		<radialGradient gradientTransform="matrix(1 0 0 -1 0.1201 -708.5371)" id="svg3.collar_x5F_body_2_" r="32.4004" cx="15.1587" gradientUnits="userSpaceOnUse" cy="-765.7056">
		<stop offset="0" style="stop-color:#B0E8FF"/>
		<stop offset="1" style="stop-color:#74AEEE"/>
	</radialGradient>
	<path fill="url(#svg3.collar_x5F_body_2_)" d="M0.5,62.768c0,1.938,1.575,3.494,3.523,3.494   h48.51c1.947,0,3.521-1.559,3.521-3.494c0,0-1.844-6.861-6.525-11.543c-4.815-4.813-11.244-6.146-11.244-6.146   c-1.771,1.655-5.61,2.802-10.063,2.802c-4.453,0-8.292-1.146-10.063-2.802c0,0-5.755,0.586-11.189,6.021   C1.378,56.689,0.5,62.768,0.5,62.768z" id="svg3.collar_x5F_body_1_" stroke="#5491CF"/>
	
		<radialGradient gradientTransform="matrix(1 0 0 -1 0.1201 -708.5371)" id="svg3.collar_x5F_r_2_" r="9.2834" cx="31.5" gradientUnits="userSpaceOnUse" cy="-755.832">
		<stop offset="0" style="stop-color:#80CCFF"/>
		<stop offset="1" style="stop-color:#74AEEE"/>
	</radialGradient>
	<path fill="url(#svg3.collar_x5F_r_2_)" d="M38.159,41.381c0,0-0.574,2.369-3.013,4.441   c-2.108,1.795-5.783,2.072-5.783,2.072l3.974,6.217c0,0,2.957-1.637,5.009-3.848c1.922-2.072,1.37-5.479,1.37-5.479L38.159,41.381z   " id="svg3.collar_x5F_r_1_" stroke="#5491CF"/>
	
		<radialGradient gradientTransform="matrix(1 0 0 -1 0.1201 -708.5371)" id="svg3.collar_x5F_l_2_" r="9.2837" cx="19.1377" gradientUnits="userSpaceOnUse" cy="-755.873">
		<stop offset="0" style="stop-color:#80CCFF"/>
		<stop offset="1" style="stop-color:#74AEEE"/>
	</radialGradient>
	<path fill="url(#svg3.collar_x5F_l_2_)" d="M18.63,41.422c0,0,0.576,2.369,3.012,4.441   c2.109,1.793,5.785,2.072,5.785,2.072l-3.974,6.217c0,0-2.957-1.637-5.007-3.85c-1.922-2.072-1.37-5.48-1.37-5.48L18.63,41.422z" id="svg3.collar_x5F_l_1_" stroke="#5491CF"/>
	
		<radialGradient gradientTransform="matrix(1 0 0 -1 0.04 64.1543)" id="svg3.Knob2_2_" r="0.9669" cx="27.8872" gradientUnits="userSpaceOnUse" cy="7.9414">
		<stop offset="0" style="stop-color:#80CCFF"/>
		<stop offset="1" style="stop-color:#74AEEE"/>
	</radialGradient>
	<circle fill="url(#svg3.Knob2_2_)" r="0.584" id="svg3.Knob2_1_" cx="28.258" cy="56.254" stroke="#5491CF"/>
	
		<radialGradient gradientTransform="matrix(1 0 0 -1 0.04 64.1543)" id="svg3.Knob1_2_" r="0.9669" cx="27.9253" gradientUnits="userSpaceOnUse" cy="1.6973">
		<stop offset="0" style="stop-color:#80CCFF"/>
		<stop offset="1" style="stop-color:#74AEEE"/>
	</radialGradient>
	<circle fill="url(#svg3.Knob1_2_)" r="0.584" id="svg3.Knob1_1_" cx="28.296" cy="62.499" stroke="#5491CF"/>
</g>
</svg>
      </g>
    </g>
    <g text-rendering="geometricPrecision" shape-rendering="geometricPrecision" transform="matrix(1,0,0,1,215.7229,14.7221)">
      <g clip-path="url(#clipPath6)">
        <svg xml:space="preserve" opacity="1" writing-mode="lr-tb" stop-color="rgb(0, 0, 0)" shape-rendering="auto" glyph-orientation-horizontal="0deg" color-profile="auto" lighting-color="rgb(255, 255, 255)" color="rgb(0, 0, 0)" font-weight="400" alignment-baseline="auto" font-style="normal" version="1.1" color-interpolation-filters="linearrgb" text-anchor="start" stroke-linecap="butt" color-interpolation="srgb" font-variant="normal" word-spacing="normal" fill-opacity="1" text-rendering="auto" clip-path="none" text-decoration="none" letter-spacing="normal" viewBox="0 0 57 65" glyph-orientation-vertical="auto" display="inline" font-size-adjust="none" overflow="visible" fill="rgb(0, 0, 0)" font-stretch="normal" stroke-dasharray="none" id="svg4.Ebene_1" stroke-miterlimit="4" stop-opacity="1" color-rendering="auto" font-size="12" pointer-events="visiblepainted" mask="none" direction="ltr" baseline-shift="baseline" enable-background="new 0 0 57 65" fill-rule="nonzero" image-rendering="auto" stroke-dashoffset="0" width="57px" marker-end="none" clip="auto" cursor="auto" stroke="none" filter="none" visibility="visible" kerning="auto" stroke-width="1" font-family="&quot;Arial&quot;,&quot;Helvetica&quot;,sans-serif" flood-opacity="1" clip-rule="nonzero" src="none" height="65px" unicode-bidi="normal" stroke-linejoin="miter" stroke-opacity="1" flood-color="rgb(0, 0, 0)" dominant-baseline="auto" marker-start="none" x="0px" marker-mid="none" y="0px">
<g>
	
		<linearGradient gradientTransform="matrix(1 0 0 1 0.0801 -771.6914)" x1="26.5796" x2="27.8207" gradientUnits="userSpaceOnUse" y1="796.6533" y2="826.4517" id="svg4.SVGID_1_">
		<stop offset="0.2711" style="stop-color:#FFAB4F"/>
		<stop offset="1" style="stop-color:#FFD28F"/>
	</linearGradient>
	<path fill="url(#svg4.SVGID_1_)" d="M49.529,52.225c-4.396-4.396-10.951-5.884-12.063-6.109   V38.8H19.278c0,0,0.038,6.903,0,6.868c0,0-6.874,0.997-12.308,6.432C1.378,57.691,0.5,63.77,0.5,63.77   c0,1.937,1.575,3.492,3.523,3.492h48.51c1.947,0,3.521-1.558,3.521-3.492C56.055,63.768,54.211,56.906,49.529,52.225z" stroke-miterlimit="10" stroke="#ED9135"/>
	
		<radialGradient gradientTransform="matrix(1 0 0 1 0.0801 -771.6914)" gradientUnits="userSpaceOnUse" r="23.4236" cx="27.8228" id="svg4.face_x5F_white_1_" cy="798.418" fx="23.2533" fy="795.9283">
		<stop offset="0" style="stop-color:#FFD28F"/>
		<stop offset="1" style="stop-color:#FFAB4F"/>
	</radialGradient>
	<path fill="url(#svg4.face_x5F_white_1_)" id="svg4.face_x5F_white_3_" d="M43.676,24.357   c0.086,10.2-6.738,18.52-15.245,18.586c-8.504,0.068-15.468-8.146-15.554-18.344C12.794,14.4,19.618,6.079,28.123,6.012   C36.627,5.945,43.59,14.158,43.676,24.357z" stroke-miterlimit="10" stroke="#ED9135"/>
	<path fill="#ECECEC" d="M20.278,14.25   c0,0,5.321,7.25,15,3.75c2.729-0.563,9.058,1.035,9.058,1.035S40.68,2.865,27.289,3.744C9.403,5.125,12.058,26.678,12.058,26.678   s2.768-0.684,5.036-4.802C18.068,20.106,20.278,14.25,20.278,14.25z" id="svg4.hair_x5F_gray_1_" stroke="#9B9B9B" stroke-linecap="round" stroke-linejoin="round"/>
	
		<radialGradient gradientTransform="matrix(1 0 0 1 0.0801 -771.6914)" id="svg4.collar_x5F_body_1_" r="32.4004" cx="15.1982" gradientUnits="userSpaceOnUse" cy="829.8604">
		<stop offset="0" style="stop-color:#B0E8FF"/>
		<stop offset="1" style="stop-color:#74AEEE"/>
	</radialGradient>
	<path fill="url(#svg4.collar_x5F_body_1_)" d="M0.5,63.768c0,1.938,1.575,3.494,3.523,3.494   h48.51c1.947,0,3.521-1.559,3.521-3.494c0,0-1.844-6.861-6.525-11.543c-4.815-4.814-11.244-6.146-11.244-6.146   c-1.771,1.655-5.61,2.802-10.063,2.802c-4.453,0-8.292-1.146-10.063-2.802c0,0-5.755,0.586-11.189,6.021   C1.378,57.689,0.5,63.768,0.5,63.768z" id="svg4.collar_x5F_body_3_" stroke="#5491CF"/>
	
		<radialGradient gradientTransform="matrix(1 0 0 1 0.0801 -771.6914)" id="svg4.collar_x5F_r_1_" r="9.2835" cx="31.54" gradientUnits="userSpaceOnUse" cy="819.9863">
		<stop offset="0" style="stop-color:#80CCFF"/>
		<stop offset="1" style="stop-color:#74AEEE"/>
	</radialGradient>
	<path fill="url(#svg4.collar_x5F_r_1_)" d="M38.159,42.381c0,0-0.574,2.369-3.013,4.441   c-2.108,1.795-5.783,2.072-5.783,2.072l3.974,6.217c0,0,2.957-1.637,5.009-3.848c1.922-2.072,1.37-5.479,1.37-5.479L38.159,42.381z   " id="svg4.collar_x5F_r_3_" stroke="#5491CF"/>
	
		<radialGradient gradientTransform="matrix(1 0 0 1 0.0801 -771.6914)" id="svg4.collar_x5F_l_1_" r="9.2834" cx="19.1777" gradientUnits="userSpaceOnUse" cy="820.0273">
		<stop offset="0" style="stop-color:#80CCFF"/>
		<stop offset="1" style="stop-color:#74AEEE"/>
	</radialGradient>
	<path fill="url(#svg4.collar_x5F_l_1_)" d="M18.63,42.422c0,0,0.576,2.369,3.012,4.441   c2.109,1.793,5.785,2.072,5.785,2.072l-3.974,6.217c0,0-2.957-1.637-5.007-3.85c-1.922-2.072-1.37-5.479-1.37-5.479L18.63,42.422z" id="svg4.collar_x5F_l_3_" stroke="#5491CF"/>
</g>
</svg>
      </g>
    </g>
    <g text-rendering="geometricPrecision" shape-rendering="geometricPrecision" transform="matrix(1,0,0,1,94,370)">
      <g clip-path="url(#clipPath7)">
        <svg xml:space="preserve" opacity="1" writing-mode="lr-tb" stop-color="rgb(0, 0, 0)" shape-rendering="auto" glyph-orientation-horizontal="0deg" color-profile="auto" lighting-color="rgb(255, 255, 255)" color="rgb(0, 0, 0)" font-weight="400" alignment-baseline="auto" font-style="normal" version="1.1" color-interpolation-filters="linearrgb" text-anchor="start" stroke-linecap="butt" color-interpolation="srgb" font-variant="normal" word-spacing="normal" fill-opacity="1" text-rendering="auto" clip-path="none" text-decoration="none" letter-spacing="normal" viewBox="0 0 100 100" glyph-orientation-vertical="auto" display="inline" font-size-adjust="none" overflow="visible" fill="rgb(0, 0, 0)" font-stretch="normal" stroke-dasharray="none" stroke-miterlimit="4" stop-opacity="1" color-rendering="auto" font-size="12" pointer-events="visiblepainted" mask="none" direction="ltr" baseline-shift="baseline" enable-background="new 0 0 100 100" fill-rule="nonzero" image-rendering="auto" stroke-dashoffset="0" style="enable-background:new 0 0 100 100;" width="100px" marker-end="none" clip="auto" cursor="auto" stroke="none" filter="none" visibility="visible" kerning="auto" stroke-width="1" font-family="&quot;Arial&quot;,&quot;Helvetica&quot;,sans-serif" flood-opacity="1" clip-rule="nonzero" src="none" height="100px" unicode-bidi="normal" stroke-linejoin="miter" stroke-opacity="1" flood-color="rgb(0, 0, 0)" dominant-baseline="auto" marker-start="none" x="0px" marker-mid="none" y="0px">
<style type="text/css">
	.st0{fill:#6B3A19;}
	.st1{fill:#F58536;}
	.st2{fill:#9D5025;}
	.st3{fill:#FBBF93;}
	.st4{fill:#FFFFFF;}
	.st5{fill:none;stroke:#7D7D7D;stroke-miterlimit:10;stroke-dasharray:2.1247;}
	.st6{clip-path:url(#SVGID_2_);enable-background:new    ;}
	.st7{clip-path:url(#SVGID_4_);enable-background:new    ;}
</style>
<g id="svg5.Layer_1">
	<g>
		<polygon class="st2" points="15.9,74.1 20.2,76.3 27.9,50 20.2,23.7 15.9,25.9   "/>
		<polygon class="st1" points="28.7,25.7 20.2,23.7 20.2,76.3 28.7,74.3   "/>
		<polygon class="st2" points="25.5,21.1 31.8,17.9 39.8,50 31.8,82.1 25.5,78.9   "/>
		<polygon class="st1" points="44.9,77.8 31.8,82 31.8,17.9 44.9,22.1   "/>
		<polygon class="st2" points="74.5,29.2 79.7,29.2 79.7,69.1 74.5,68.8   "/>
		<polygon class="st0" points="54.3,29.7 60.1,26.7 79.3,29.2 79.9,34.3 74.6,35   "/>
		<polygon class="st3" points="54.4,70.3 60.3,73.3 80.1,65.7 74.8,65   "/>
		<polygon class="st2" points="55.9,61.8 66.4,63.2 66.4,36.8 55.9,38.2   "/>
		<polygon class="st2" points="39.8,86.1 50,91.2 58.8,49.9 50,8.8 39.8,13.9   "/>
		<path class="st1" d="M50,8.8v82.3l34.1-17.1V25.9L50,8.8z M79.7,65.8l-19.5,5.9V28.4l19.5,5.9V65.8z"/>
		<polygon class="st1" points="66.4,36.8 66.4,63.3 77.2,50   "/>
	</g>
</g>
<g id="svg5.Layer_2">
</g>
</svg>
      </g>
    </g>
    <g text-rendering="geometricPrecision" stroke-miterlimit="1.45" shape-rendering="geometricPrecision" font-family="sans-serif" transform="matrix(1,0,0,1,-16,10)" stroke-linecap="butt">
      <text x="137.0195" xml:space="preserve" y="468.8016" clip-path="url(#clipPath2)" stroke="none">Lambda</text>
    </g>
    <g text-rendering="geometricPrecision" shape-rendering="geometricPrecision" transform="matrix(1,0,0,1,94,250)">
      <g clip-path="url(#clipPath8)">
        <svg xml:space="preserve" opacity="1" writing-mode="lr-tb" stop-color="rgb(0, 0, 0)" shape-rendering="auto" glyph-orientation-horizontal="0deg" color-profile="auto" lighting-color="rgb(255, 255, 255)" color="rgb(0, 0, 0)" font-weight="400" alignment-baseline="auto" font-style="normal" version="1.1" color-interpolation-filters="linearrgb" text-anchor="start" stroke-linecap="butt" color-interpolation="srgb" font-variant="normal" word-spacing="normal" fill-opacity="1" text-rendering="auto" clip-path="none" text-decoration="none" letter-spacing="normal" viewBox="0 0 100 100" glyph-orientation-vertical="auto" display="inline" font-size-adjust="none" overflow="visible" fill="rgb(0, 0, 0)" font-stretch="normal" stroke-dasharray="none" id="svg6.Layer_1" stroke-miterlimit="4" stop-opacity="1" color-rendering="auto" font-size="12" pointer-events="visiblepainted" mask="none" direction="ltr" baseline-shift="baseline" enable-background="new 0 0 100 100" fill-rule="nonzero" image-rendering="auto" stroke-dashoffset="0" style="enable-background:new 0 0 100 100;" width="100px" marker-end="none" clip="auto" cursor="auto" stroke="none" filter="none" visibility="visible" kerning="auto" stroke-width="1" font-family="&quot;Arial&quot;,&quot;Helvetica&quot;,sans-serif" flood-opacity="1" clip-rule="nonzero" src="none" height="100px" unicode-bidi="normal" stroke-linejoin="miter" stroke-opacity="1" flood-color="rgb(0, 0, 0)" dominant-baseline="auto" marker-start="none" x="0px" marker-mid="none" y="0px">
<style type="text/css">
	.st0{fill:#759C3E;}
	.st1{fill:#7D7C7C;}
	.st2{fill:#FFFFFF;}
	.st3{fill:#D2D3D3;}
	.st4{fill:#B7CA9D;}
	.st5{fill:#4B612C;}
	.st6{enable-background:new    ;}
	.st7{fill:#373737;}
	.st8{fill:#E05243;}
	.st9{fill:#4F4F4F;}
	.st10{fill:#3C4929;}
</style>
<circle r="10.8" class="st5" cx="38.8" cy="51.2"/>
<polygon class="st5" points="42.5,46.7 54.9,46.7 56,48.6 60.2,48.2 61.9,49.9 63.3,50.2 72,49.1 72,51.6 69.3,55.8 42.5,55.8 "/>
<rect x="28" width="10.4" y="48.8" height="2.8" class="st5"/>
<circle r="10.8" class="st0" cx="38.8" cy="48.8"/>
<circle r="2.8" class="st2" cx="34.1" cy="48.8"/>
<polygon class="st0" points="42.5,44.2 54.9,44.2 56,46.1 60.2,45.8 61.9,47.4 63.3,47.7 67.2,45.4 72,49.1 69.3,53.3 42.5,53.3 "/>
</svg>
      </g>
    </g>
    <g fill="white" text-rendering="geometricPrecision" shape-rendering="geometricPrecision" transform="matrix(1,0,0,1,-16,10)" stroke="white">
      <rect x="126.2891" width="67.4219" height="18.1328" y="306" clip-path="url(#clipPath2)" stroke="none"/>
      <rect x="126.2891" y="306" clip-path="url(#clipPath2)" fill="none" width="67.4219" height="18.1328" stroke="black" stroke-miterlimit="1.6"/>
    </g>
    <g text-rendering="geometricPrecision" stroke-miterlimit="1.45" shape-rendering="geometricPrecision" font-family="sans-serif" transform="matrix(1,0,0,1,-16,10)" stroke-linecap="butt">
      <text x="128.2891" xml:space="preserve" y="319.6016" clip-path="url(#clipPath2)" stroke="none">Permission</text>
    </g>
    <g fill="rgb(204,255,204)" text-rendering="geometricPrecision" shape-rendering="geometricPrecision" transform="matrix(1,0,0,1,-16,10)" stroke="rgb(204,255,204)">
      <rect x="85" width="150" height="50" y="515" clip-path="url(#clipPath2)" stroke="none"/>
    </g>
    <g text-rendering="geometricPrecision" stroke-miterlimit="1.45" shape-rendering="geometricPrecision" transform="matrix(1,0,0,1,-16,10)" stroke-linecap="butt">
      <rect fill="none" x="85" width="150" height="50" y="515" clip-path="url(#clipPath2)"/>
      <text x="133.9609" xml:space="preserve" y="544.5352" clip-path="url(#clipPath2)" font-family="sans-serif" stroke="none">API Code</text>
      <path fill="none" d="M59.5069 73.4177 L60.379 78.0763 L62.863 82.2451 L71.7292 89.3925 L84.2641 95.6017 L98.6333 101.6515 L113.0026 108.3207 L125.5375 116.3879 L130.5438 121.1891 L134.4036 126.6318 L136.5316 131.9272 L136.544 132.0264" clip-path="url(#clipPath2)"/>
      <path d="M137.7821 139.93 L140.8647 127.3008 L136.3892 131.0385 L130.9852 128.8484 Z" clip-path="url(#clipPath2)" stroke="none"/>
      <rect x="81.3199" y="90.9336" clip-path="url(#clipPath2)" fill="white" width="34.627" height="18.1328" stroke="none"/>
      <rect stroke-linecap="square" x="81.3199" y="90.9336" clip-path="url(#clipPath2)" fill="none" width="34.627" height="18.1328" stroke-miterlimit="1.6"/>
      <text x="83.3199" xml:space="preserve" y="104.5352" clip-path="url(#clipPath2)" font-family="sans-serif" stroke="none">HTTP</text>
      <path fill="none" d="M159.5 74.9745 L160.5 100.4718 L161.2168 120.7773" clip-path="url(#clipPath2)"/>
      <path d="M161.499 128.7723 L166.0726 116.6034 L161.1815 119.7779 L156.0788 116.9562 Z" clip-path="url(#clipPath2)" stroke="none"/>
      <rect x="144.1865" y="100.7711" clip-path="url(#clipPath2)" fill="white" width="34.627" height="18.1328" stroke="none"/>
      <rect stroke-linecap="square" x="144.1865" y="100.7711" clip-path="url(#clipPath2)" fill="none" width="34.627" height="18.1328" stroke-miterlimit="1.6"/>
      <text x="146.1865" xml:space="preserve" y="114.3727" clip-path="url(#clipPath2)" font-family="sans-serif" stroke="none">HTTP</text>
      <path fill="none" d="M259.5 72.4841 L258.666 77.3373 L256.3089 81.6443 L247.8958 89.0141 L236.0016 95.3827 L222.3667 101.5394 L208.7318 108.2734 L196.8375 116.3739 L192.0871 121.1832 L188.4245 126.6301 L186.4086 131.9181 L186.3968 132.0174" clip-path="url(#clipPath2)"/>
      <path d="M185.2186 139.9301 L191.9314 128.7974 L186.5441 131.0283 L182.0405 127.3246 Z" clip-path="url(#clipPath2)" stroke="none"/>
      <rect x="205.0532" y="90.9336" clip-path="url(#clipPath2)" fill="white" width="34.627" height="18.1328" stroke="none"/>
      <rect stroke-linecap="square" x="205.0532" y="90.9336" clip-path="url(#clipPath2)" fill="none" width="34.627" height="18.1328" stroke-miterlimit="1.6"/>
      <text x="207.0532" xml:space="preserve" y="104.5352" clip-path="url(#clipPath2)" font-family="sans-serif" stroke="none">HTTP</text>
      <path fill="none" d="M159.5 211.2 L160.3897 275.9965" clip-path="url(#clipPath2)"/>
      <path d="M160.4995 283.9957 L165.3343 271.9282 L160.3759 274.9966 L155.3352 272.0655 Z" clip-path="url(#clipPath2)" stroke="none"/>
      <path fill="none" d="M159.5005 296.0043 L160.3902 360.8008" clip-path="url(#clipPath2)"/>
      <path d="M160.5 368.8 L165.3348 356.7325 L160.3764 359.8008 L155.3357 356.8698 Z" clip-path="url(#clipPath2)" stroke="none"/>
      <path fill="none" d="M159.5 451.2 L160.3741 506.9698" clip-path="url(#clipPath2)"/>
      <path d="M160.4995 514.9689 L165.3108 502.892 L160.3585 505.97 L155.3121 503.0487 Z" clip-path="url(#clipPath2)" stroke="none"/>
    </g>
  </g>
</svg>
