<?xml version="1.0" encoding="UTF-8"?><svg xmlns="http://www.w3.org/2000/svg" xmlns:xlink="http://www.w3.org/1999/xlink" fill-opacity="1" color-rendering="auto" color-interpolation="auto" text-rendering="auto" stroke="black" stroke-linecap="square" width="549" stroke-miterlimit="10" shape-rendering="auto" stroke-opacity="1" fill="black" stroke-dasharray="none" font-weight="normal" stroke-width="1" height="750" font-family="'Dialog'" font-style="normal" stroke-linejoin="miter" font-size="12px" stroke-dashoffset="0" image-rendering="auto">
  <!--Generated by ySVG 2.5-->
  <defs id="genericDefs"/>
  <g>
    <defs id="defs1">
      <clipPath clipPathUnits="userSpaceOnUse" id="clipPath1">
        <path d="M0 0 L549 0 L549 750 L0 750 L0 0 Z"/>
      </clipPath>
      <clipPath clipPathUnits="userSpaceOnUse" id="clipPath2">
        <path d="M16 -45 L565 -45 L565 705 L16 705 L16 -45 Z"/>
      </clipPath>
      <clipPath clipPathUnits="userSpaceOnUse" id="clipPath3">
        <path d="M-15.7229 -51.619 L533.277 -51.619 L533.277 698.381 L-15.7229 698.381 L-15.7229 -51.619 Z"/>
      </clipPath>
      <clipPath clipPathUnits="userSpaceOnUse" id="clipPath4">
        <path d="M-215.7229 -53.2125 L333.277 -53.2125 L333.277 696.7875 L-215.7229 696.7875 L-215.7229 -53.2125 Z"/>
      </clipPath>
      <clipPath clipPathUnits="userSpaceOnUse" id="clipPath5">
        <path d="M-115.7229 -49.7221 L433.277 -49.7221 L433.277 700.2779 L-115.7229 700.2779 L-115.7229 -49.7221 Z"/>
      </clipPath>
      <clipPath clipPathUnits="userSpaceOnUse" id="clipPath6">
        <path d="M-395.723 -49.7221 L153.2771 -49.7221 L153.2771 700.2779 L-395.723 700.2779 L-395.723 -49.7221 Z"/>
      </clipPath>
    </defs>
    <g fill="rgb(204,255,204)" text-rendering="geometricPrecision" shape-rendering="geometricPrecision" transform="matrix(1,0,0,1,-16,45)" stroke="rgb(204,255,204)">
      <rect x="85" width="150" height="50" y="425" clip-path="url(#clipPath2)" stroke="none"/>
    </g>
    <g text-rendering="geometricPrecision" stroke-miterlimit="1.45" shape-rendering="geometricPrecision" transform="matrix(1,0,0,1,-16,45)" stroke-linecap="butt">
      <rect fill="none" x="85" width="150" height="50" y="425" clip-path="url(#clipPath2)"/>
      <text x="126.4902" xml:space="preserve" y="454.5352" clip-path="url(#clipPath2)" font-family="sans-serif" stroke="none">Service Tier</text>
    </g>
    <g fill="rgb(153,204,255)" text-rendering="geometricPrecision" shape-rendering="geometricPrecision" transform="matrix(1,0,0,1,-16,45)" stroke="rgb(153,204,255)">
      <rect x="85" width="150" height="50" y="125" clip-path="url(#clipPath2)" stroke="none"/>
    </g>
    <g text-rendering="geometricPrecision" stroke-miterlimit="1.45" shape-rendering="geometricPrecision" transform="matrix(1,0,0,1,-16,45)" stroke-linecap="butt">
      <rect fill="none" x="85" width="150" height="50" y="125" clip-path="url(#clipPath2)"/>
      <text x="124.6094" xml:space="preserve" y="154.5352" clip-path="url(#clipPath2)" font-family="sans-serif" stroke="none">API Gateway</text>
    </g>
    <g fill="rgb(204,255,204)" text-rendering="geometricPrecision" shape-rendering="geometricPrecision" transform="matrix(1,0,0,1,-16,45)" stroke="rgb(204,255,204)">
      <rect x="85" width="150" height="50" y="525" clip-path="url(#clipPath2)" stroke="none"/>
    </g>
    <g text-rendering="geometricPrecision" stroke-miterlimit="1.45" shape-rendering="geometricPrecision" transform="matrix(1,0,0,1,-16,45)" stroke-linecap="butt">
      <rect fill="none" x="85" width="150" height="50" y="525" clip-path="url(#clipPath2)"/>
      <text x="133.4102" xml:space="preserve" y="554.5352" clip-path="url(#clipPath2)" font-family="sans-serif" stroke="none">Data Tier</text>
    </g>
    <g text-rendering="geometricPrecision" shape-rendering="geometricPrecision" transform="matrix(1,0,0,1,15.7229,51.619)">
      <g clip-path="url(#clipPath3)">
        <svg xml:space="preserve" opacity="1" writing-mode="lr-tb" stop-color="rgb(0, 0, 0)" shape-rendering="auto" glyph-orientation-horizontal="0deg" color-profile="auto" lighting-color="rgb(255, 255, 255)" color="rgb(0, 0, 0)" font-weight="400" alignment-baseline="auto" font-style="normal" version="1.1" color-interpolation-filters="linearrgb" text-anchor="start" stroke-linecap="butt" color-interpolation="srgb" font-variant="normal" word-spacing="normal" fill-opacity="1" text-rendering="auto" clip-path="none" text-decoration="none" letter-spacing="normal" viewBox="0 0 57 67" glyph-orientation-vertical="auto" display="inline" font-size-adjust="none" overflow="visible" fill="rgb(0, 0, 0)" font-stretch="normal" stroke-dasharray="none" id="svg1.Ebene_1" stroke-miterlimit="4" stop-opacity="1" color-rendering="auto" font-size="12" pointer-events="visiblepainted" mask="none" direction="ltr" baseline-shift="baseline" enable-background="new 0 0 57 67" fill-rule="nonzero" image-rendering="auto" stroke-dashoffset="0" width="57px" marker-end="none" clip="auto" cursor="auto" stroke="none" filter="none" visibility="visible" kerning="auto" stroke-width="1" font-family="&quot;Arial&quot;,&quot;Helvetica&quot;,sans-serif" flood-opacity="1" clip-rule="nonzero" src="none" height="67px" unicode-bidi="normal" stroke-linejoin="miter" stroke-opacity="1" flood-color="rgb(0, 0, 0)" dominant-baseline="auto" marker-start="none" x="0px" marker-mid="none" y="0px">
<g>
	
		<radialGradient gradientTransform="matrix(1 0 0 -1 0.1201 -706.5371)" gradientUnits="userSpaceOnUse" r="11.4464" cx="28.0298" id="svg1.neck_x5F_white_1_" cy="-751.9429" fx="25.7969" fy="-753.1596">
		<stop offset="0" style="stop-color:#B38E5D"/>
		<stop offset="1" style="stop-color:#805126"/>
	</radialGradient>
	<path fill="url(#svg1.neck_x5F_white_1_)" id="svg1.neck_x5F_white_2_" d="M19.278,37.799h18.188   v13.23c-1.313,0.371-17.173,0.436-18.188,0.172V37.799z" stroke-miterlimit="10" stroke="#5B453B"/>
	
		<radialGradient gradientTransform="matrix(1 0 0 -1 0.1201 -706.5371)" gradientUnits="userSpaceOnUse" r="31.0533" cx="27.481" id="svg1.SVGID_1_" cy="-760.3003" fx="21.4231" fy="-763.6011">
		<stop offset="0" style="stop-color:#B38E5D"/>
		<stop offset="1" style="stop-color:#805126"/>
	</radialGradient>
	<path fill="url(#svg1.SVGID_1_)" d="M49.529,51.225c-4.396-4.396-10.951-5.884-12.063-6.109   V37.8H19.278c0,0,0.038,6.903,0,6.868c0,0-6.874,0.997-12.308,6.432C1.378,56.691,0.5,62.77,0.5,62.77   c0,1.938,1.575,3.492,3.523,3.492h48.51c1.947,0,3.521-1.558,3.521-3.492C56.055,62.768,54.211,55.906,49.529,51.225z" stroke-miterlimit="10" stroke="#5B453B"/>
	
		<radialGradient gradientTransform="matrix(1 0 0 -1 0.1201 -706.5371)" gradientUnits="userSpaceOnUse" r="23.424" cx="27.7827" id="svg1.face_x5F_white_1_" cy="-732.2632" fx="23.2131" fy="-734.753">
		<stop offset="0" style="stop-color:#B38E5D"/>
		<stop offset="1" style="stop-color:#805126"/>
	</radialGradient>
	<path fill="url(#svg1.face_x5F_white_1_)" id="svg1.face_x5F_white_2_" d="M43.676,23.357   c0.086,10.199-6.738,18.52-15.246,18.586c-8.503,0.068-15.467-8.146-15.553-18.344C12.794,13.4,19.618,5.079,28.123,5.012   C36.627,4.945,43.59,13.158,43.676,23.357z" stroke-miterlimit="10" stroke="#5B453B"/>
	
		<linearGradient gradientTransform="matrix(0.275 0 0 0.2733 -783.3976 -1542.678)" x1="2941.4297" x2="2965.0596" gradientUnits="userSpaceOnUse" y1="5674.7988" y2="5768.2505" id="svg1.face_highlight_1_">
		<stop offset="0" style="stop-color:#FFFFFF;stop-opacity:0.42"/>
		<stop offset="1" style="stop-color:#FFFFFF;stop-opacity:0.12"/>
	</linearGradient>
	<path fill="url(#svg1.face_highlight_1_)" id="svg1.face_highlight_2_" d="M27.958,6.333c-6.035,0.047-10.747,4.493-12.787,10.386   c-0.664,1.919-0.294,4.043,0.98,5.629c2.73,3.398,5.729,6.283,9.461,8.088c3.137,1.518,7.535,2.385,11.893,1.247   c2.274-0.592,3.988-2.459,4.375-4.766c0.183-1.094,0.293-2.289,0.283-3.553C42.083,13.952,36.271,6.268,27.958,6.333z"/>
	<path fill="#4B4B4B" d="M28.372,0.5   C17.537,0.5,8.269,7.748,9.153,26.125c0.563,6.563,5.862,12.042,9.366,13.531c-2.929-10.968-0.304-25.021-0.585-25.526   c-0.281-0.505,3.536,6.728,3.536,6.728l3.183-8.312c5.541,4.28,0.393,11.309,1.049,11.058c4.26-1.631,5.34-9.228,5.34-9.228   s2.729,3.657,2.701,5.504c-0.054,3.562,2.194-6.067,2.194-6.067l1.027,2.031c6.727,9.822,3.684,16.208,1.654,22.781   c15.665-0.703,12.289-10.48,9.658-18.407C43.59,6.092,39.206,0.5,28.372,0.5z" id="svg1.path9833_2_" stroke="#000000" stroke-linecap="round" stroke-linejoin="round"/>
	
		<radialGradient gradientTransform="matrix(1 0 0 -1 0.1201 -706.5371)" id="svg1.collar_x5F_body_2_" r="32.4004" cx="15.1587" gradientUnits="userSpaceOnUse" cy="-763.7056">
		<stop offset="0" style="stop-color:#B0E8FF"/>
		<stop offset="1" style="stop-color:#74AEEE"/>
	</radialGradient>
	<path fill="url(#svg1.collar_x5F_body_2_)" d="M0.5,62.768c0,1.938,1.575,3.494,3.523,3.494   h48.51c1.947,0,3.521-1.559,3.521-3.494c0,0-1.844-6.861-6.525-11.543c-4.815-4.813-11.244-6.146-11.244-6.146   c-1.771,1.655-5.61,2.802-10.063,2.802c-4.453,0-8.292-1.146-10.063-2.802c0,0-5.755,0.586-11.189,6.021   C1.378,56.689,0.5,62.768,0.5,62.768z" id="svg1.collar_x5F_body_1_" stroke="#5491CF"/>
	
		<radialGradient gradientTransform="matrix(1 0 0 -1 0.1201 -706.5371)" id="svg1.collar_x5F_r_2_" r="9.2834" cx="31.5" gradientUnits="userSpaceOnUse" cy="-753.832">
		<stop offset="0" style="stop-color:#80CCFF"/>
		<stop offset="1" style="stop-color:#74AEEE"/>
	</radialGradient>
	<path fill="url(#svg1.collar_x5F_r_2_)" d="M38.159,41.381c0,0-0.574,2.369-3.013,4.441   c-2.108,1.795-5.783,2.072-5.783,2.072l3.974,6.217c0,0,2.957-1.637,5.009-3.848c1.922-2.072,1.37-5.479,1.37-5.479L38.159,41.381z   " id="svg1.collar_x5F_r_1_" stroke="#5491CF"/>
	
		<radialGradient gradientTransform="matrix(1 0 0 -1 0.1201 -706.5371)" id="svg1.collar_x5F_l_2_" r="9.2837" cx="19.1377" gradientUnits="userSpaceOnUse" cy="-753.873">
		<stop offset="0" style="stop-color:#80CCFF"/>
		<stop offset="1" style="stop-color:#74AEEE"/>
	</radialGradient>
	<path fill="url(#svg1.collar_x5F_l_2_)" d="M18.63,41.422c0,0,0.576,2.369,3.012,4.441   c2.109,1.793,5.785,2.072,5.785,2.072l-3.974,6.217c0,0-2.957-1.637-5.007-3.85c-1.922-2.072-1.37-5.48-1.37-5.48L18.63,41.422z" id="svg1.collar_x5F_l_1_" stroke="#5491CF"/>
	
		<radialGradient gradientTransform="matrix(1 0 0 -1 0.04 66.1543)" id="svg1.Knob2_2_" r="0.9669" cx="27.8872" gradientUnits="userSpaceOnUse" cy="9.9414">
		<stop offset="0" style="stop-color:#80CCFF"/>
		<stop offset="1" style="stop-color:#74AEEE"/>
	</radialGradient>
	<circle fill="url(#svg1.Knob2_2_)" r="0.584" id="svg1.Knob2_1_" cx="28.258" cy="56.254" stroke="#5491CF"/>
	
		<radialGradient gradientTransform="matrix(1 0 0 -1 0.04 66.1543)" id="svg1.Knob1_2_" r="0.9669" cx="27.9253" gradientUnits="userSpaceOnUse" cy="3.6973">
		<stop offset="0" style="stop-color:#80CCFF"/>
		<stop offset="1" style="stop-color:#74AEEE"/>
	</radialGradient>
	<circle fill="url(#svg1.Knob1_2_)" r="0.584" id="svg1.Knob1_1_" cx="28.296" cy="62.499" stroke="#5491CF"/>
</g>
</svg>
      </g>
    </g>
    <g text-rendering="geometricPrecision" shape-rendering="geometricPrecision" transform="matrix(1,0,0,1,215.7229,53.2125)">
      <g clip-path="url(#clipPath4)">
        <svg xml:space="preserve" opacity="1" writing-mode="lr-tb" stop-color="rgb(0, 0, 0)" shape-rendering="auto" glyph-orientation-horizontal="0deg" color-profile="auto" lighting-color="rgb(255, 255, 255)" color="rgb(0, 0, 0)" font-weight="400" alignment-baseline="auto" font-style="normal" version="1.1" color-interpolation-filters="linearrgb" text-anchor="start" stroke-linecap="butt" color-interpolation="srgb" font-variant="normal" word-spacing="normal" fill-opacity="1" text-rendering="auto" clip-path="none" text-decoration="none" letter-spacing="normal" viewBox="0 0 57 65" glyph-orientation-vertical="auto" display="inline" font-size-adjust="none" overflow="visible" fill="rgb(0, 0, 0)" font-stretch="normal" stroke-dasharray="none" id="svg2.Ebene_1" stroke-miterlimit="4" stop-opacity="1" color-rendering="auto" font-size="12" pointer-events="visiblepainted" mask="none" direction="ltr" baseline-shift="baseline" enable-background="new 0 0 57 65" fill-rule="nonzero" image-rendering="auto" stroke-dashoffset="0" width="57px" marker-end="none" clip="auto" cursor="auto" stroke="none" filter="none" visibility="visible" kerning="auto" stroke-width="1" font-family="&quot;Arial&quot;,&quot;Helvetica&quot;,sans-serif" flood-opacity="1" clip-rule="nonzero" src="none" height="65px" unicode-bidi="normal" stroke-linejoin="miter" stroke-opacity="1" flood-color="rgb(0, 0, 0)" dominant-baseline="auto" marker-start="none" x="0px" marker-mid="none" y="0px">
<g>
	
		<linearGradient gradientTransform="matrix(1 0 0 -1 0.1201 -708.5371)" x1="26.5396" x2="27.7805" gradientUnits="userSpaceOnUse" y1="-732.5005" y2="-762.2984" id="svg2.SVGID_1_">
		<stop offset="0.2711" style="stop-color:#FFAB4F"/>
		<stop offset="1" style="stop-color:#FFD28F"/>
	</linearGradient>
	<path fill="url(#svg2.SVGID_1_)" d="M49.529,51.225c-4.396-4.396-10.951-5.884-12.063-6.109   V37.8H19.278c0,0,0.038,6.903,0,6.868c0,0-6.874,0.997-12.308,6.432C1.378,56.691,0.5,62.77,0.5,62.77   c0,1.938,1.575,3.492,3.523,3.492h48.51c1.947,0,3.521-1.558,3.521-3.492C56.055,62.768,54.211,55.906,49.529,51.225z" stroke-miterlimit="10" stroke="#ED9135"/>
	
		<radialGradient gradientTransform="matrix(1 0 0 -1 0.1201 -708.5371)" gradientUnits="userSpaceOnUse" r="23.424" cx="27.7827" id="svg2.face_x5F_white_1_" cy="-734.2632" fx="23.2131" fy="-736.753">
		<stop offset="0" style="stop-color:#FFD28F"/>
		<stop offset="1" style="stop-color:#FFAB4F"/>
	</radialGradient>
	<path fill="url(#svg2.face_x5F_white_1_)" id="svg2.face_x5F_white_3_" d="M43.676,23.357   c0.086,10.2-6.738,18.52-15.246,18.586c-8.503,0.068-15.467-8.146-15.553-18.344C12.794,13.4,19.618,5.079,28.123,5.012   C36.627,4.945,43.59,13.158,43.676,23.357z" stroke-miterlimit="10" stroke="#ED9135"/>
	
		<linearGradient gradientTransform="matrix(0.275 0 0 0.2733 -783.3976 -1543.4047)" x1="2941.4297" x2="2965.0596" gradientUnits="userSpaceOnUse" y1="5677.457" y2="5770.9087" id="svg2.face_highlight_1_">
		<stop offset="0" style="stop-color:#FFFFFF;stop-opacity:0.42"/>
		<stop offset="1" style="stop-color:#FFFFFF;stop-opacity:0.2067"/>
	</linearGradient>
	<path fill="url(#svg2.face_highlight_1_)" id="svg2.face_highlight_3_" d="M27.958,6.333c-6.035,0.047-10.747,4.493-12.787,10.386   c-0.664,1.919-0.294,4.043,0.98,5.629c2.73,3.398,5.729,6.283,9.461,8.088c3.137,1.518,7.535,2.385,11.893,1.247   c2.274-0.592,3.988-2.459,4.375-4.766c0.183-1.094,0.293-2.289,0.283-3.553C42.083,13.952,36.271,6.268,27.958,6.333z"/>
	<path fill="#CC9869" d="M32.215,9.938   c0,0,5.688,2.75,7.688,8.125c2.104,5.652,4.123,8.232,4.188,8c1.875-6.794,1.063-21.438-10.17-21.587   c-20.455-7.663-25.58,11.962-23.893,19.65c1.078,4.911,2.234,6.686,3.938,8.08C13.966,32.205,15.028,17.563,32.215,9.938z" stroke="#99724F" stroke-linecap="round" stroke-linejoin="round"/>
	
		<radialGradient gradientTransform="matrix(1 0 0 -1 0.1201 -708.5371)" id="svg2.collar_x5F_body_2_" r="32.4004" cx="15.1587" gradientUnits="userSpaceOnUse" cy="-765.7056">
		<stop offset="0" style="stop-color:#B0E8FF"/>
		<stop offset="1" style="stop-color:#74AEEE"/>
	</radialGradient>
	<path fill="url(#svg2.collar_x5F_body_2_)" d="M0.5,62.768c0,1.938,1.575,3.494,3.523,3.494   h48.51c1.947,0,3.521-1.559,3.521-3.494c0,0-1.844-6.861-6.525-11.543c-4.815-4.813-11.244-6.146-11.244-6.146   c-1.771,1.655-5.61,2.802-10.063,2.802c-4.453,0-8.292-1.146-10.063-2.802c0,0-5.755,0.586-11.189,6.021   C1.378,56.689,0.5,62.768,0.5,62.768z" id="svg2.collar_x5F_body_1_" stroke="#5491CF"/>
	
		<radialGradient gradientTransform="matrix(1 0 0 -1 0.1201 -708.5371)" id="svg2.collar_x5F_r_2_" r="9.2834" cx="31.5" gradientUnits="userSpaceOnUse" cy="-755.832">
		<stop offset="0" style="stop-color:#80CCFF"/>
		<stop offset="1" style="stop-color:#74AEEE"/>
	</radialGradient>
	<path fill="url(#svg2.collar_x5F_r_2_)" d="M38.159,41.381c0,0-0.574,2.369-3.013,4.441   c-2.108,1.795-5.783,2.072-5.783,2.072l3.974,6.217c0,0,2.957-1.637,5.009-3.848c1.922-2.072,1.37-5.479,1.37-5.479L38.159,41.381z   " id="svg2.collar_x5F_r_1_" stroke="#5491CF"/>
	
		<radialGradient gradientTransform="matrix(1 0 0 -1 0.1201 -708.5371)" id="svg2.collar_x5F_l_2_" r="9.2837" cx="19.1377" gradientUnits="userSpaceOnUse" cy="-755.873">
		<stop offset="0" style="stop-color:#80CCFF"/>
		<stop offset="1" style="stop-color:#74AEEE"/>
	</radialGradient>
	<path fill="url(#svg2.collar_x5F_l_2_)" d="M18.63,41.422c0,0,0.576,2.369,3.012,4.441   c2.109,1.793,5.785,2.072,5.785,2.072l-3.974,6.217c0,0-2.957-1.637-5.007-3.85c-1.922-2.072-1.37-5.48-1.37-5.48L18.63,41.422z" id="svg2.collar_x5F_l_1_" stroke="#5491CF"/>
	
		<radialGradient gradientTransform="matrix(1 0 0 -1 0.04 64.1543)" id="svg2.Knob2_2_" r="0.9669" cx="27.8872" gradientUnits="userSpaceOnUse" cy="7.9414">
		<stop offset="0" style="stop-color:#80CCFF"/>
		<stop offset="1" style="stop-color:#74AEEE"/>
	</radialGradient>
	<circle fill="url(#svg2.Knob2_2_)" r="0.584" id="svg2.Knob2_1_" cx="28.258" cy="56.254" stroke="#5491CF"/>
	
		<radialGradient gradientTransform="matrix(1 0 0 -1 0.04 64.1543)" id="svg2.Knob1_2_" r="0.9669" cx="27.9253" gradientUnits="userSpaceOnUse" cy="1.6973">
		<stop offset="0" style="stop-color:#80CCFF"/>
		<stop offset="1" style="stop-color:#74AEEE"/>
	</radialGradient>
	<circle fill="url(#svg2.Knob1_2_)" r="0.584" id="svg2.Knob1_1_" cx="28.296" cy="62.499" stroke="#5491CF"/>
</g>
</svg>
      </g>
    </g>
    <g text-rendering="geometricPrecision" shape-rendering="geometricPrecision" transform="matrix(1,0,0,1,115.7229,49.7221)">
      <g clip-path="url(#clipPath5)">
        <svg xml:space="preserve" opacity="1" writing-mode="lr-tb" stop-color="rgb(0, 0, 0)" shape-rendering="auto" glyph-orientation-horizontal="0deg" color-profile="auto" lighting-color="rgb(255, 255, 255)" color="rgb(0, 0, 0)" font-weight="400" alignment-baseline="auto" font-style="normal" version="1.1" color-interpolation-filters="linearrgb" text-anchor="start" stroke-linecap="butt" color-interpolation="srgb" font-variant="normal" word-spacing="normal" fill-opacity="1" text-rendering="auto" clip-path="none" text-decoration="none" letter-spacing="normal" viewBox="0 0 57 65" glyph-orientation-vertical="auto" display="inline" font-size-adjust="none" overflow="visible" fill="rgb(0, 0, 0)" font-stretch="normal" stroke-dasharray="none" id="svg3.Ebene_1" stroke-miterlimit="4" stop-opacity="1" color-rendering="auto" font-size="12" pointer-events="visiblepainted" mask="none" direction="ltr" baseline-shift="baseline" enable-background="new 0 0 57 65" fill-rule="nonzero" image-rendering="auto" stroke-dashoffset="0" width="57px" marker-end="none" clip="auto" cursor="auto" stroke="none" filter="none" visibility="visible" kerning="auto" stroke-width="1" font-family="&quot;Arial&quot;,&quot;Helvetica&quot;,sans-serif" flood-opacity="1" clip-rule="nonzero" src="none" height="65px" unicode-bidi="normal" stroke-linejoin="miter" stroke-opacity="1" flood-color="rgb(0, 0, 0)" dominant-baseline="auto" marker-start="none" x="0px" marker-mid="none" y="0px">
<g>
	
		<linearGradient gradientTransform="matrix(1 0 0 1 0.0801 -771.6914)" x1="26.5796" x2="27.8207" gradientUnits="userSpaceOnUse" y1="796.6533" y2="826.4517" id="svg3.SVGID_1_">
		<stop offset="0.2711" style="stop-color:#FFAB4F"/>
		<stop offset="1" style="stop-color:#FFD28F"/>
	</linearGradient>
	<path fill="url(#svg3.SVGID_1_)" d="M49.529,52.225c-4.396-4.396-10.951-5.884-12.063-6.109   V38.8H19.278c0,0,0.038,6.903,0,6.868c0,0-6.874,0.997-12.308,6.432C1.378,57.691,0.5,63.77,0.5,63.77   c0,1.937,1.575,3.492,3.523,3.492h48.51c1.947,0,3.521-1.558,3.521-3.492C56.055,63.768,54.211,56.906,49.529,52.225z" stroke-miterlimit="10" stroke="#ED9135"/>
	
		<radialGradient gradientTransform="matrix(1 0 0 1 0.0801 -771.6914)" gradientUnits="userSpaceOnUse" r="23.4236" cx="27.8228" id="svg3.face_x5F_white_1_" cy="798.418" fx="23.2533" fy="795.9283">
		<stop offset="0" style="stop-color:#FFD28F"/>
		<stop offset="1" style="stop-color:#FFAB4F"/>
	</radialGradient>
	<path fill="url(#svg3.face_x5F_white_1_)" id="svg3.face_x5F_white_3_" d="M43.676,24.357   c0.086,10.2-6.738,18.52-15.245,18.586c-8.504,0.068-15.468-8.146-15.554-18.344C12.794,14.4,19.618,6.079,28.123,6.012   C36.627,5.945,43.59,14.158,43.676,24.357z" stroke-miterlimit="10" stroke="#ED9135"/>
	<path fill="#ECECEC" d="M20.278,14.25   c0,0,5.321,7.25,15,3.75c2.729-0.563,9.058,1.035,9.058,1.035S40.68,2.865,27.289,3.744C9.403,5.125,12.058,26.678,12.058,26.678   s2.768-0.684,5.036-4.802C18.068,20.106,20.278,14.25,20.278,14.25z" id="svg3.hair_x5F_gray_1_" stroke="#9B9B9B" stroke-linecap="round" stroke-linejoin="round"/>
	
		<radialGradient gradientTransform="matrix(1 0 0 1 0.0801 -771.6914)" id="svg3.collar_x5F_body_1_" r="32.4004" cx="15.1982" gradientUnits="userSpaceOnUse" cy="829.8604">
		<stop offset="0" style="stop-color:#B0E8FF"/>
		<stop offset="1" style="stop-color:#74AEEE"/>
	</radialGradient>
	<path fill="url(#svg3.collar_x5F_body_1_)" d="M0.5,63.768c0,1.938,1.575,3.494,3.523,3.494   h48.51c1.947,0,3.521-1.559,3.521-3.494c0,0-1.844-6.861-6.525-11.543c-4.815-4.814-11.244-6.146-11.244-6.146   c-1.771,1.655-5.61,2.802-10.063,2.802c-4.453,0-8.292-1.146-10.063-2.802c0,0-5.755,0.586-11.189,6.021   C1.378,57.689,0.5,63.768,0.5,63.768z" id="svg3.collar_x5F_body_3_" stroke="#5491CF"/>
	
		<radialGradient gradientTransform="matrix(1 0 0 1 0.0801 -771.6914)" id="svg3.collar_x5F_r_1_" r="9.2835" cx="31.54" gradientUnits="userSpaceOnUse" cy="819.9863">
		<stop offset="0" style="stop-color:#80CCFF"/>
		<stop offset="1" style="stop-color:#74AEEE"/>
	</radialGradient>
	<path fill="url(#svg3.collar_x5F_r_1_)" d="M38.159,42.381c0,0-0.574,2.369-3.013,4.441   c-2.108,1.795-5.783,2.072-5.783,2.072l3.974,6.217c0,0,2.957-1.637,5.009-3.848c1.922-2.072,1.37-5.479,1.37-5.479L38.159,42.381z   " id="svg3.collar_x5F_r_3_" stroke="#5491CF"/>
	
		<radialGradient gradientTransform="matrix(1 0 0 1 0.0801 -771.6914)" id="svg3.collar_x5F_l_1_" r="9.2834" cx="19.1777" gradientUnits="userSpaceOnUse" cy="820.0273">
		<stop offset="0" style="stop-color:#80CCFF"/>
		<stop offset="1" style="stop-color:#74AEEE"/>
	</radialGradient>
	<path fill="url(#svg3.collar_x5F_l_1_)" d="M18.63,42.422c0,0,0.576,2.369,3.012,4.441   c2.109,1.793,5.785,2.072,5.785,2.072l-3.974,6.217c0,0-2.957-1.637-5.007-3.85c-1.922-2.072-1.37-5.479-1.37-5.479L18.63,42.422z" id="svg3.collar_x5F_l_3_" stroke="#5491CF"/>
</g>
</svg>
      </g>
    </g>
    <g fill="rgb(153,204,255)" text-rendering="geometricPrecision" shape-rendering="geometricPrecision" transform="matrix(1,0,0,1,-16,45)" stroke="rgb(153,204,255)">
      <path d="M100 642 C103.6 630 216.4 630 220 642 L220 678 C216.4 690 103.6 690 100 678 Z" stroke="none" clip-path="url(#clipPath2)"/>
    </g>
    <g text-rendering="geometricPrecision" stroke-miterlimit="1.45" shape-rendering="geometricPrecision" transform="matrix(1,0,0,1,-16,45)" stroke-linecap="butt">
      <path fill="none" d="M100 642 C103.6 630 216.4 630 220 642 L220 678 C216.4 690 103.6 690 100 678 Z" clip-path="url(#clipPath2)"/>
      <path fill="none" d="M220 642 C216.4 654 103.6 654 100 642" clip-path="url(#clipPath2)"/>
      <text x="133.1436" xml:space="preserve" y="664.5352" clip-path="url(#clipPath2)" font-family="sans-serif" stroke="none">Database</text>
    </g>
    <g fill="rgb(204,255,204)" text-rendering="geometricPrecision" shape-rendering="geometricPrecision" transform="matrix(1,0,0,1,-16,45)" stroke="rgb(204,255,204)">
      <rect x="85" width="150" height="50" y="325" clip-path="url(#clipPath2)" stroke="none"/>
    </g>
    <g text-rendering="geometricPrecision" stroke-miterlimit="1.45" shape-rendering="geometricPrecision" transform="matrix(1,0,0,1,-16,45)" stroke-linecap="butt">
      <rect fill="none" x="85" width="150" height="50" y="325" clip-path="url(#clipPath2)"/>
      <text x="130.7881" xml:space="preserve" y="354.5352" clip-path="url(#clipPath2)" font-family="sans-serif" stroke="none">Controller</text>
    </g>
    <g fill="rgb(153,204,255)" text-rendering="geometricPrecision" shape-rendering="geometricPrecision" transform="matrix(1,0,0,1,-16,45)" stroke="rgb(153,204,255)">
      <rect x="85" width="150" height="50" y="225" clip-path="url(#clipPath2)" stroke="none"/>
    </g>
    <g text-rendering="geometricPrecision" stroke-miterlimit="1.45" shape-rendering="geometricPrecision" transform="matrix(1,0,0,1,-16,45)" stroke-linecap="butt">
      <rect fill="none" x="85" width="150" height="50" y="225" clip-path="url(#clipPath2)"/>
      <text x="128.7842" xml:space="preserve" y="254.5352" clip-path="url(#clipPath2)" font-family="sans-serif" stroke="none">Dispatcher</text>
      <path fill="none" d="M159.5 475 L160.3391 516.9528" clip-path="url(#clipPath2)"/>
      <path d="M160.499 524.9512 L165.2581 512.8536 L160.3191 515.9529 L155.2601 513.0535 Z" clip-path="url(#clipPath2)" stroke="none"/>
      <rect x="149.9365" y="498.8711" clip-path="url(#clipPath2)" fill="white" width="21.127" height="18.1328" stroke="none"/>
      <rect stroke-linecap="square" x="149.9365" y="498.8711" clip-path="url(#clipPath2)" fill="none" width="21.127" height="18.1328" stroke-miterlimit="1.6"/>
      <text x="151.9365" xml:space="preserve" y="512.4727" clip-path="url(#clipPath2)" font-family="sans-serif" stroke="none">Ids</text>
      <path fill="none" d="M59.5089 73.4268 L60.0728 76.3149 L61.6914 78.9349 L67.4688 83.5357 L85 92.2976 L94.3633 97.6685 L102.5312 104.506 L108.3086 113.4148 L109.3879 117.0289 L109.3971 117.1285" clip-path="url(#clipPath2)"/>
      <path d="M110.5094 125.0508 L113.7924 112.4721 L109.2581 116.1382 L103.8895 113.8625 Z" clip-path="url(#clipPath2)" stroke="none"/>
      <rect x="67.6865" y="80.9336" clip-path="url(#clipPath2)" fill="white" width="34.627" height="18.1328" stroke="none"/>
      <rect stroke-linecap="square" x="67.6865" y="80.9336" clip-path="url(#clipPath2)" fill="none" width="34.627" height="18.1328" stroke-miterlimit="1.6"/>
      <text x="69.6865" xml:space="preserve" y="94.5352" clip-path="url(#clipPath2)" font-family="sans-serif" stroke="none">HTTP</text>
      <path fill="none" d="M259.5 74.9745 L257.4805 83.2837 L252.1562 89.833 L244.6289 95.2086 L236 99.9968 L227.3711 104.7838 L219.8438 110.1559 L214.5195 116.6992 L214.3991 117.1943" clip-path="url(#clipPath2)"/>
      <path d="M212.5079 124.9676 L220.2029 114.4897 L214.6355 116.2227 L210.4864 112.1257 Z" clip-path="url(#clipPath2)" stroke="none"/>
      <rect x="218.6865" y="90.9336" clip-path="url(#clipPath2)" fill="white" width="34.627" height="18.1328" stroke="none"/>
      <rect stroke-linecap="square" x="218.6865" y="90.9336" clip-path="url(#clipPath2)" fill="none" width="34.627" height="18.1328" stroke-miterlimit="1.6"/>
      <text x="220.6865" xml:space="preserve" y="104.5352" clip-path="url(#clipPath2)" font-family="sans-serif" stroke="none">HTTP</text>
      <path fill="none" d="M159.5 72.4841 L160.5 92.1855 L161.2553 116.9717" clip-path="url(#clipPath2)"/>
      <path d="M161.499 124.968 L166.1312 112.8212 L161.2249 115.9721 L156.1358 113.1258 Z" clip-path="url(#clipPath2)" stroke="none"/>
      <rect x="144.1865" y="93.8711" clip-path="url(#clipPath2)" fill="white" width="34.627" height="18.1328" stroke="none"/>
      <rect stroke-linecap="square" x="144.1865" y="93.8711" clip-path="url(#clipPath2)" fill="none" width="34.627" height="18.1328" stroke-miterlimit="1.6"/>
      <text x="146.1865" xml:space="preserve" y="107.4727" clip-path="url(#clipPath2)" font-family="sans-serif" stroke="none">HTTP</text>
      <path fill="none" d="M159.5 575 L160.3617 625.0041" clip-path="url(#clipPath2)"/>
      <path d="M160.4995 633.0029 L165.292 620.9186 L160.3445 624.0043 L155.2935 621.0909 Z" clip-path="url(#clipPath2)" stroke="none"/>
      <path fill="none" d="M159.5 375 L160.3391 416.9528" clip-path="url(#clipPath2)"/>
      <path d="M160.499 424.9512 L165.2581 412.8536 L160.3191 415.953 L155.2601 413.0536 Z" clip-path="url(#clipPath2)" stroke="none"/>
      <rect x="97.3105" y="398.8711" clip-path="url(#clipPath2)" fill="white" width="126.3789" height="18.1328" stroke="none"/>
      <rect stroke-linecap="square" x="97.3105" y="398.8711" clip-path="url(#clipPath2)" fill="none" width="126.3789" height="18.1328" stroke-miterlimit="1.6"/>
      <text x="99.3105" xml:space="preserve" y="412.4727" clip-path="url(#clipPath2)" font-family="sans-serif" stroke="none">Strings and Numbers</text>
      <path fill="none" d="M159.5 175 L160.3391 216.9528" clip-path="url(#clipPath2)"/>
      <path d="M160.499 224.9512 L165.2581 212.8536 L160.319 215.953 L155.2601 213.0536 Z" clip-path="url(#clipPath2)" stroke="none"/>
      <rect x="121.0674" y="198.8711" clip-path="url(#clipPath2)" fill="white" width="78.8652" height="18.1328" stroke="none"/>
      <rect stroke-linecap="square" x="121.0674" y="198.8711" clip-path="url(#clipPath2)" fill="none" width="78.8652" height="18.1328" stroke-miterlimit="1.6"/>
      <text x="123.0674" xml:space="preserve" y="212.4727" clip-path="url(#clipPath2)" font-family="sans-serif" stroke="none">Web Request</text>
      <path fill="none" d="M159.5 275 L160.3391 316.9528" clip-path="url(#clipPath2)"/>
      <path d="M160.499 324.9512 L165.2581 312.8536 L160.3191 315.953 L155.2601 313.0536 Z" clip-path="url(#clipPath2)" stroke="none"/>
      <rect x="115.7119" y="298.8711" clip-path="url(#clipPath2)" fill="white" width="89.5762" height="18.1328" stroke="none"/>
      <rect stroke-linecap="square" x="115.7119" y="298.8711" clip-path="url(#clipPath2)" fill="none" width="89.5762" height="18.1328" stroke-miterlimit="1.6"/>
      <text x="117.7119" xml:space="preserve" y="312.4727" clip-path="url(#clipPath2)" font-family="sans-serif" stroke="none">URL + Context</text>
    </g>
    <g fill="rgb(245,245,245)" text-rendering="geometricPrecision" shape-rendering="geometricPrecision" transform="matrix(1,0,0,1,-16,45)" stroke="rgb(245,245,245)">
      <rect x="330" y="-30" clip-path="url(#clipPath2)" width="220" rx="4" ry="4" height="320" stroke="none"/>
      <rect x="330" y="-30" clip-path="url(#clipPath2)" fill="rgb(235,235,235)" width="220" height="21.666" stroke="none"/>
    </g>
    <g font-size="15px" stroke-linecap="butt" transform="matrix(1,0,0,1,-16,45)" text-rendering="geometricPrecision" font-family="sans-serif" shape-rendering="geometricPrecision" stroke-miterlimit="1.45">
      <text x="395.542" xml:space="preserve" y="-13.498" clip-path="url(#clipPath2)" stroke="none">I am Legend</text>
      <rect x="330" y="-30" clip-path="url(#clipPath2)" fill="none" width="220" stroke-dasharray="6,2" rx="4" ry="4" height="320"/>
    </g>
    <g fill="rgb(204,255,204)" text-rendering="geometricPrecision" shape-rendering="geometricPrecision" transform="matrix(1,0,0,1,-16,45)" stroke="rgb(204,255,204)">
      <rect x="365" width="150" height="50" y="225" clip-path="url(#clipPath2)" stroke="none"/>
    </g>
    <g text-rendering="geometricPrecision" stroke-miterlimit="1.45" shape-rendering="geometricPrecision" transform="matrix(1,0,0,1,-16,45)" stroke-linecap="butt">
      <rect fill="none" x="365" width="150" height="50" y="225" clip-path="url(#clipPath2)"/>
      <text x="413.9609" xml:space="preserve" y="254.5352" clip-path="url(#clipPath2)" font-family="sans-serif" stroke="none">API Code</text>
    </g>
    <g fill="rgb(153,204,255)" text-rendering="geometricPrecision" shape-rendering="geometricPrecision" transform="matrix(1,0,0,1,-16,45)" stroke="rgb(153,204,255)">
      <rect x="365" width="150" height="50" y="125" clip-path="url(#clipPath2)" stroke="none"/>
    </g>
    <g text-rendering="geometricPrecision" stroke-miterlimit="1.45" shape-rendering="geometricPrecision" transform="matrix(1,0,0,1,-16,45)" stroke-linecap="butt">
      <rect fill="none" x="365" width="150" height="50" y="125" clip-path="url(#clipPath2)"/>
      <text x="400.2529" xml:space="preserve" y="154.5352" clip-path="url(#clipPath2)" font-family="sans-serif" stroke="none">Infrastructure</text>
    </g>
    <g text-rendering="geometricPrecision" shape-rendering="geometricPrecision" transform="matrix(1,0,0,1,395.7229,49.7221)">
      <g clip-path="url(#clipPath6)">
        <svg xml:space="preserve" opacity="1" writing-mode="lr-tb" stop-color="rgb(0, 0, 0)" shape-rendering="auto" glyph-orientation-horizontal="0deg" color-profile="auto" lighting-color="rgb(255, 255, 255)" color="rgb(0, 0, 0)" font-weight="400" alignment-baseline="auto" font-style="normal" version="1.1" color-interpolation-filters="linearrgb" text-anchor="start" stroke-linecap="butt" color-interpolation="srgb" font-variant="normal" word-spacing="normal" fill-opacity="1" text-rendering="auto" clip-path="none" text-decoration="none" letter-spacing="normal" viewBox="0 0 57 65" glyph-orientation-vertical="auto" display="inline" font-size-adjust="none" overflow="visible" fill="rgb(0, 0, 0)" font-stretch="normal" stroke-dasharray="none" id="svg4.Ebene_1" stroke-miterlimit="4" stop-opacity="1" color-rendering="auto" font-size="12" pointer-events="visiblepainted" mask="none" direction="ltr" baseline-shift="baseline" enable-background="new 0 0 57 65" fill-rule="nonzero" image-rendering="auto" stroke-dashoffset="0" width="57px" marker-end="none" clip="auto" cursor="auto" stroke="none" filter="none" visibility="visible" kerning="auto" stroke-width="1" font-family="&quot;Arial&quot;,&quot;Helvetica&quot;,sans-serif" flood-opacity="1" clip-rule="nonzero" src="none" height="65px" unicode-bidi="normal" stroke-linejoin="miter" stroke-opacity="1" flood-color="rgb(0, 0, 0)" dominant-baseline="auto" marker-start="none" x="0px" marker-mid="none" y="0px">
<g>
	
		<linearGradient gradientTransform="matrix(1 0 0 1 0.0801 -771.6914)" x1="26.5796" x2="27.8207" gradientUnits="userSpaceOnUse" y1="796.6533" y2="826.4517" id="svg4.SVGID_1_">
		<stop offset="0.2711" style="stop-color:#FFAB4F"/>
		<stop offset="1" style="stop-color:#FFD28F"/>
	</linearGradient>
	<path fill="url(#svg4.SVGID_1_)" d="M49.529,52.225c-4.396-4.396-10.951-5.884-12.063-6.109   V38.8H19.278c0,0,0.038,6.903,0,6.868c0,0-6.874,0.997-12.308,6.432C1.378,57.691,0.5,63.77,0.5,63.77   c0,1.937,1.575,3.492,3.523,3.492h48.51c1.947,0,3.521-1.558,3.521-3.492C56.055,63.768,54.211,56.906,49.529,52.225z" stroke-miterlimit="10" stroke="#ED9135"/>
	
		<radialGradient gradientTransform="matrix(1 0 0 1 0.0801 -771.6914)" gradientUnits="userSpaceOnUse" r="23.4236" cx="27.8228" id="svg4.face_x5F_white_1_" cy="798.418" fx="23.2533" fy="795.9283">
		<stop offset="0" style="stop-color:#FFD28F"/>
		<stop offset="1" style="stop-color:#FFAB4F"/>
	</radialGradient>
	<path fill="url(#svg4.face_x5F_white_1_)" id="svg4.face_x5F_white_3_" d="M43.676,24.357   c0.086,10.2-6.738,18.52-15.245,18.586c-8.504,0.068-15.468-8.146-15.554-18.344C12.794,14.4,19.618,6.079,28.123,6.012   C36.627,5.945,43.59,14.158,43.676,24.357z" stroke-miterlimit="10" stroke="#ED9135"/>
	<path fill="#ECECEC" d="M20.278,14.25   c0,0,5.321,7.25,15,3.75c2.729-0.563,9.058,1.035,9.058,1.035S40.68,2.865,27.289,3.744C9.403,5.125,12.058,26.678,12.058,26.678   s2.768-0.684,5.036-4.802C18.068,20.106,20.278,14.25,20.278,14.25z" id="svg4.hair_x5F_gray_1_" stroke="#9B9B9B" stroke-linecap="round" stroke-linejoin="round"/>
	
		<radialGradient gradientTransform="matrix(1 0 0 1 0.0801 -771.6914)" id="svg4.collar_x5F_body_1_" r="32.4004" cx="15.1982" gradientUnits="userSpaceOnUse" cy="829.8604">
		<stop offset="0" style="stop-color:#B0E8FF"/>
		<stop offset="1" style="stop-color:#74AEEE"/>
	</radialGradient>
	<path fill="url(#svg4.collar_x5F_body_1_)" d="M0.5,63.768c0,1.938,1.575,3.494,3.523,3.494   h48.51c1.947,0,3.521-1.559,3.521-3.494c0,0-1.844-6.861-6.525-11.543c-4.815-4.814-11.244-6.146-11.244-6.146   c-1.771,1.655-5.61,2.802-10.063,2.802c-4.453,0-8.292-1.146-10.063-2.802c0,0-5.755,0.586-11.189,6.021   C1.378,57.689,0.5,63.768,0.5,63.768z" id="svg4.collar_x5F_body_3_" stroke="#5491CF"/>
	
		<radialGradient gradientTransform="matrix(1 0 0 1 0.0801 -771.6914)" id="svg4.collar_x5F_r_1_" r="9.2835" cx="31.54" gradientUnits="userSpaceOnUse" cy="819.9863">
		<stop offset="0" style="stop-color:#80CCFF"/>
		<stop offset="1" style="stop-color:#74AEEE"/>
	</radialGradient>
	<path fill="url(#svg4.collar_x5F_r_1_)" d="M38.159,42.381c0,0-0.574,2.369-3.013,4.441   c-2.108,1.795-5.783,2.072-5.783,2.072l3.974,6.217c0,0,2.957-1.637,5.009-3.848c1.922-2.072,1.37-5.479,1.37-5.479L38.159,42.381z   " id="svg4.collar_x5F_r_3_" stroke="#5491CF"/>
	
		<radialGradient gradientTransform="matrix(1 0 0 1 0.0801 -771.6914)" id="svg4.collar_x5F_l_1_" r="9.2834" cx="19.1777" gradientUnits="userSpaceOnUse" cy="820.0273">
		<stop offset="0" style="stop-color:#80CCFF"/>
		<stop offset="1" style="stop-color:#74AEEE"/>
	</radialGradient>
	<path fill="url(#svg4.collar_x5F_l_1_)" d="M18.63,42.422c0,0,0.576,2.369,3.012,4.441   c2.109,1.793,5.785,2.072,5.785,2.072l-3.974,6.217c0,0-2.957-1.637-5.007-3.85c-1.922-2.072-1.37-5.479-1.37-5.479L18.63,42.422z" id="svg4.collar_x5F_l_3_" stroke="#5491CF"/>
</g>
</svg>
      </g>
    </g>
    <g text-rendering="geometricPrecision" stroke-miterlimit="1.45" shape-rendering="geometricPrecision" font-family="sans-serif" transform="matrix(1,0,0,1,-16,45)" stroke-linecap="butt">
      <text x="426.9863" xml:space="preserve" y="44.5352" clip-path="url(#clipPath2)" stroke="none">User</text>
      <path fill="none" d="M439.5 175 L440.3391 216.9528" clip-path="url(#clipPath2)"/>
      <path d="M440.499 224.9512 L445.2581 212.8536 L440.3191 215.953 L435.2601 213.0536 Z" clip-path="url(#clipPath2)" stroke="none"/>
      <path fill="none" d="M439.5 72.4841 L440.3472 116.9758" clip-path="url(#clipPath2)"/>
      <path d="M440.4995 124.9744 L445.2701 112.8813 L440.3282 115.976 L435.2719 113.0717 Z" clip-path="url(#clipPath2)" stroke="none"/>
    </g>
  </g>
</svg>
